<svg xmlns="http://www.w3.org/2000/svg" width="195.245" height="58.475" viewBox="142.383 95.888 195.245 58.475"><g data-name="Group 47"><g data-name="Group 46"><path d="M248.648 149.157h-.066l.016.256.004 4.95h-.507v-5.874h.684l2.864 5.183h.066l-.012-.197-.007-4.986h.518v5.874h-.688l-2.872-5.206Z" fill="#231f20" fill-rule="evenodd" data-name="Path 69"/><path d="M233.533 154.363v-5.874h.518v5.874h-.518Z" fill="#231f20" fill-rule="evenodd" data-name="Path 68"/><path d="M227.32 148.925v5.438h-.518v-5.438h-1.85v-.436h4.216v.436h-1.848Z" fill="#231f20" fill-rule="evenodd" data-name="Path 67"/><path d="M220.972 148.49v3.844a2.947 2.947 0 0 1-.013.271 3.612 3.612 0 0 1-.02.172 1.989 1.989 0 0 1-.121.458c-.06.15-.14.292-.242.43a1.484 1.484 0 0 1-.289.29 1.748 1.748 0 0 1-.099.07 1.704 1.704 0 0 1-.296.155 2.314 2.314 0 0 1-.274.092c-.223.061-.484.091-.783.091a3.597 3.597 0 0 1-.362-.017 2.516 2.516 0 0 1-.346-.058 2.05 2.05 0 0 1-.06-.016 2.344 2.344 0 0 1-.288-.098 1.772 1.772 0 0 1-.278-.145 1.607 1.607 0 0 1-.286-.234 1.386 1.386 0 0 1-.104-.123 1.89 1.89 0 0 1-.221-.372 1.693 1.693 0 0 1-.024-.056 2.13 2.13 0 0 1-.128-.456 2.926 2.926 0 0 1-.037-.446v-3.853h.518v3.915a1.67 1.67 0 0 0 .007.143 2.361 2.361 0 0 0 .019.158c.016.111.046.222.089.336a1.349 1.349 0 0 0 .125.247 1.673 1.673 0 0 0 .054.08 1.128 1.128 0 0 0 .215.225 1.352 1.352 0 0 0 .081.06 1.344 1.344 0 0 0 .226.124 1.87 1.87 0 0 0 .207.076c.145.042.313.067.504.073a2.921 2.921 0 0 0 .093.001 2.922 2.922 0 0 0 .278-.012c.127-.013.243-.033.346-.062.168-.05.311-.113.428-.192a1.085 1.085 0 0 0 .013-.009 1.16 1.16 0 0 0 .192-.164.964.964 0 0 0 .095-.12 1.5 1.5 0 0 0 .13-.234 1.3 1.3 0 0 0 .037-.093 1.71 1.71 0 0 0 .068-.273 1.505 1.505 0 0 0 .01-.062 2.788 2.788 0 0 0 .014-.159 2.317 2.317 0 0 0 .004-.143v-3.915h.518Z" fill="#231f20" fill-rule="evenodd" data-name="Path 66"/><path d="M209.41 154.363v-5.874h.518v5.433h2.898v.441h-3.416Z" fill="#231f20" fill-rule="evenodd" data-name="Path 65"/><path d="M243.208 151.117v.618c0 .232-.011.458-.032.678a3.338 3.338 0 0 1-.086.49 3.038 3.038 0 0 1-.036.13 2.286 2.286 0 0 1-.228.513 2.035 2.035 0 0 1-.014.023 1.535 1.535 0 0 1-.388.422 1.799 1.799 0 0 1-.57.275c-.2.059-.432.09-.695.096a4.058 4.058 0 0 1-.088.001 3.502 3.502 0 0 1-.367-.018 2.406 2.406 0 0 1-.342-.06 1.927 1.927 0 0 1-.072-.02 2.095 2.095 0 0 1-.325-.126 1.61 1.61 0 0 1-.245-.148 1.523 1.523 0 0 1-.388-.416 2.226 2.226 0 0 1-.239-.52 2.546 2.546 0 0 1-.001-.004 3.026 3.026 0 0 1-.114-.54 3.17 3.17 0 0 1-.007-.058 6.153 6.153 0 0 1-.033-.64v-.696a6.73 6.73 0 0 1 .033-.672 3.248 3.248 0 0 1 .088-.504 3.048 3.048 0 0 1 .033-.116 2.292 2.292 0 0 1 .223-.507 2.079 2.079 0 0 1 .019-.03 1.56 1.56 0 0 1 .388-.424 1.616 1.616 0 0 1 .314-.183 2.007 2.007 0 0 1 .256-.093 2.278 2.278 0 0 1 .339-.07c.137-.02.285-.029.444-.029a3.411 3.411 0 0 1 .369.02c.15.015.287.042.412.08a1.97 1.97 0 0 1 .326.126 1.636 1.636 0 0 1 .244.15 1.53 1.53 0 0 1 .388.423 2.29 2.29 0 0 1 .229.5 2.703 2.703 0 0 1 .011.037 3.227 3.227 0 0 1 .107.499 3.538 3.538 0 0 1 .015.121c.02.22.032.443.032.672Zm-.518.703v-.717a6.34 6.34 0 0 0-.015-.442 4.342 4.342 0 0 0-.045-.4 3.35 3.35 0 0 0-.022-.12 1.824 1.824 0 0 0-.245-.635 1.287 1.287 0 0 0-.03-.045 1.152 1.152 0 0 0-.501-.4 1.549 1.549 0 0 0-.31-.091 2.394 2.394 0 0 0-.451-.04 2.57 2.57 0 0 0-.324.02c-.168.02-.316.06-.445.117a1.166 1.166 0 0 0-.497.41 1.5 1.5 0 0 0-.164.317c-.043.11-.077.231-.102.363a4.005 4.005 0 0 0-.055.382c-.012.13-.02.27-.023.415a6.812 6.812 0 0 0-.002.149v.733a5.08 5.08 0 0 0 .016.418c.014.17.037.328.069.474a2.083 2.083 0 0 0 .103.337 1.527 1.527 0 0 0 .174.317c.127.179.294.313.498.407.178.08.39.125.636.136a2.645 2.645 0 0 0 .116.002 2.477 2.477 0 0 0 .331-.02c.161-.022.304-.061.43-.116a1.208 1.208 0 0 0 .501-.405 1.74 1.74 0 0 0 .275-.66 3.655 3.655 0 0 0 .06-.41c.013-.135.02-.279.022-.43a6.35 6.35 0 0 0 0-.066Z" fill="#231f20" fill-rule="evenodd" data-name="Path 64"/><path d="M204.554 151.117v.618c0 .232-.011.458-.032.678a3.307 3.307 0 0 1-.086.49 2.98 2.98 0 0 1-.036.13 2.309 2.309 0 0 1-.223.506 2.06 2.06 0 0 1-.019.03 1.542 1.542 0 0 1-.388.422 1.616 1.616 0 0 1-.315.181 2.16 2.16 0 0 1-.255.094 2.238 2.238 0 0 1-.339.07c-.111.015-.23.024-.356.026a4.049 4.049 0 0 1-.088.001 3.503 3.503 0 0 1-.369-.018 2.297 2.297 0 0 1-.412-.08 2.097 2.097 0 0 1-.326-.126 1.622 1.622 0 0 1-.244-.148 1.521 1.521 0 0 1-.388-.416 2.226 2.226 0 0 1-.239-.52 2.546 2.546 0 0 1-.001-.004 2.99 2.99 0 0 1-.116-.55 3.172 3.172 0 0 1-.005-.048 5.896 5.896 0 0 1-.033-.64v-.696a6.45 6.45 0 0 1 .033-.672 3.217 3.217 0 0 1 .09-.507 2.988 2.988 0 0 1 .031-.113 2.292 2.292 0 0 1 .223-.507 2.079 2.079 0 0 1 .02-.03 1.558 1.558 0 0 1 .387-.424 1.627 1.627 0 0 1 .315-.183 2.01 2.01 0 0 1 .255-.093 2.269 2.269 0 0 1 .339-.07c.137-.02.285-.029.444-.029a3.425 3.425 0 0 1 .364.019c.123.013.238.033.345.06a1.986 1.986 0 0 1 .072.02 1.969 1.969 0 0 1 .335.132 1.647 1.647 0 0 1 .235.144 1.53 1.53 0 0 1 .388.424 2.286 2.286 0 0 1 .228.5 2.754 2.754 0 0 1 .012.037 3.183 3.183 0 0 1 .108.499 3.53 3.53 0 0 1 .014.121c.021.22.032.443.032.672Zm-.518.703v-.717a6.251 6.251 0 0 0-.015-.442 4.312 4.312 0 0 0-.046-.4 3.342 3.342 0 0 0-.022-.12 2.203 2.203 0 0 0-.089-.321 1.499 1.499 0 0 0-.185-.359 1.157 1.157 0 0 0-.5-.4 1.548 1.548 0 0 0-.31-.091 2.392 2.392 0 0 0-.452-.04 2.572 2.572 0 0 0-.324.02 1.58 1.58 0 0 0-.445.117 1.156 1.156 0 0 0-.496.41 1.484 1.484 0 0 0-.168.322c-.038.1-.07.21-.093.328a2.549 2.549 0 0 0-.006.03 4.057 4.057 0 0 0-.055.382 5.882 5.882 0 0 0-.025.564v.733a5.08 5.08 0 0 0 .017.418c.014.17.037.328.068.474.057.258.15.477.277.654.128.179.294.313.498.407.178.08.39.125.636.136a2.645 2.645 0 0 0 .116.002 2.497 2.497 0 0 0 .32-.02c.113-.014.219-.037.315-.068a1.353 1.353 0 0 0 .126-.048c.207-.093.374-.228.501-.405a1.5 1.5 0 0 0 .181-.34 2.091 2.091 0 0 0 .093-.32c.056-.264.083-.564.083-.906Z" fill="#231f20" fill-rule="evenodd" data-name="Path 63"/><path d="m257.052 152.662.493-.008a1.453 1.453 0 0 0 .008.145 2.025 2.025 0 0 0 .016.122 1.237 1.237 0 0 0 .033.144 1.39 1.39 0 0 0 .05.143 1.121 1.121 0 0 0 .129.226 1.249 1.249 0 0 0 .038.05c.071.088.16.166.269.233a1.256 1.256 0 0 0 .18.092c.06.025.127.048.199.067a1.94 1.94 0 0 0 .014.004c.14.037.3.057.48.06a3.053 3.053 0 0 0 .061.001c.247 0 .456-.027.629-.084a1.406 1.406 0 0 0 .209-.085.997.997 0 0 0 .202-.135.86.86 0 0 0 .011-.01.878.878 0 0 0 .237-.352 1.199 1.199 0 0 0 .067-.305 1.515 1.515 0 0 0 .007-.14 1.592 1.592 0 0 0-.014-.212 1.17 1.17 0 0 0-.05-.218.907.907 0 0 0-.191-.327 1.116 1.116 0 0 0-.206-.173 1.34 1.34 0 0 0-.113-.067 1.803 1.803 0 0 0-.207-.092 2.409 2.409 0 0 0-.225-.071 2.81 2.81 0 0 0-.016-.004l-.952-.262a3.511 3.511 0 0 1-.289-.094 2.394 2.394 0 0 1-.253-.112 1.404 1.404 0 0 1-.256-.165 1.246 1.246 0 0 1-.135-.127 1.156 1.156 0 0 1-.236-.412 1.424 1.424 0 0 1-.058-.244 2.027 2.027 0 0 1-.021-.238 2.538 2.538 0 0 1-.002-.086 1.797 1.797 0 0 1 .046-.413 1.597 1.597 0 0 1 .044-.152c.06-.175.16-.328.297-.457a1.202 1.202 0 0 1 .254-.18c.088-.048.187-.09.296-.124a2.085 2.085 0 0 1 .307-.072c.163-.026.345-.039.548-.039.275 0 .515.027.723.08a1.906 1.906 0 0 1 .139.041 1.727 1.727 0 0 1 .313.142 1.325 1.325 0 0 1 .265.203 1.388 1.388 0 0 1 .33.524 1.563 1.563 0 0 1 .004.01 2.469 2.469 0 0 1 .104.415 2.947 2.947 0 0 1 .032.283l-.492.004a2.793 2.793 0 0 0-.051-.348 2.532 2.532 0 0 0-.037-.148 1.014 1.014 0 0 0-.222-.404.95.95 0 0 0-.224-.181 1.314 1.314 0 0 0-.198-.094 1.349 1.349 0 0 0-.23-.064 2.128 2.128 0 0 0-.255-.03 3.078 3.078 0 0 0-.198-.006 3.313 3.313 0 0 0-.245.008 2.142 2.142 0 0 0-.232.03 1.318 1.318 0 0 0-.194.05 1.304 1.304 0 0 0-.171.071.881.881 0 0 0-.159.102.687.687 0 0 0-.062.057.765.765 0 0 0-.137.194.677.677 0 0 0-.048.13c-.031.118-.047.24-.047.36 0 .145.017.273.05.384a.976.976 0 0 0 .006.017.856.856 0 0 0 .169.301.801.801 0 0 0 .003.005.954.954 0 0 0 .196.166 1.168 1.168 0 0 0 .093.055c.116.061.251.112.405.155l1.045.291a2.866 2.866 0 0 1 .325.111 2.383 2.383 0 0 1 .199.093 1.413 1.413 0 0 1 .296.202 1.292 1.292 0 0 1 .1.1 1.25 1.25 0 0 1 .214.34 1.507 1.507 0 0 1 .036.092c.058.168.087.365.087.592.001.177-.018.339-.058.486a1.274 1.274 0 0 1-.412.654 1.507 1.507 0 0 1-.497.273c-.147.05-.31.084-.49.105a3.636 3.636 0 0 1-.42.023 3.115 3.115 0 0 1-.415-.026 2.281 2.281 0 0 1-.406-.091 1.948 1.948 0 0 1-.029-.01 1.729 1.729 0 0 1-.612-.352 1.43 1.43 0 0 1-.37-.538 1.774 1.774 0 0 1-.116-.502 2.132 2.132 0 0 1-.007-.182Z" fill="#231f20" fill-rule="evenodd" data-name="Path 62"/><path d="m191.966 152.662.493-.008a1.465 1.465 0 0 0 .007.145 1.846 1.846 0 0 0 .017.122 1.237 1.237 0 0 0 .033.144 1.39 1.39 0 0 0 .05.143 1.121 1.121 0 0 0 .129.226 1.249 1.249 0 0 0 .038.05c.071.088.161.166.269.233a1.256 1.256 0 0 0 .18.092c.06.025.127.048.199.067a1.94 1.94 0 0 0 .014.004c.14.037.3.057.48.06a3.055 3.055 0 0 0 .061.001c.247 0 .456-.027.629-.084.167-.054.304-.127.41-.22a.842.842 0 0 0 .012-.01.875.875 0 0 0 .237-.352 1.211 1.211 0 0 0 .068-.305 1.473 1.473 0 0 0 .007-.14 1.576 1.576 0 0 0-.014-.212 1.137 1.137 0 0 0-.05-.218.907.907 0 0 0-.192-.327 1.116 1.116 0 0 0-.206-.173 1.34 1.34 0 0 0-.113-.067 1.803 1.803 0 0 0-.207-.092 2.409 2.409 0 0 0-.225-.071 2.81 2.81 0 0 0-.016-.004l-.952-.262a3.511 3.511 0 0 1-.289-.094 2.394 2.394 0 0 1-.253-.112 1.398 1.398 0 0 1-.25-.16 1.218 1.218 0 0 1-.14-.132 1.137 1.137 0 0 1-.222-.368 1.327 1.327 0 0 1-.015-.044 1.44 1.44 0 0 1-.058-.244 2.039 2.039 0 0 1-.021-.238 2.54 2.54 0 0 1-.002-.086 1.797 1.797 0 0 1 .046-.413 1.597 1.597 0 0 1 .044-.152c.06-.175.16-.328.297-.457a1.202 1.202 0 0 1 .254-.18c.088-.048.187-.09.296-.124a2.085 2.085 0 0 1 .307-.072c.163-.026.346-.039.548-.039.275 0 .515.027.723.08a1.906 1.906 0 0 1 .139.041 1.727 1.727 0 0 1 .313.142 1.325 1.325 0 0 1 .265.203c.15.148.26.325.334.534a2.466 2.466 0 0 1 .104.415 3.012 3.012 0 0 1 .032.284l-.493.003a2.626 2.626 0 0 0-.087-.496 1.007 1.007 0 0 0-.222-.404.949.949 0 0 0-.224-.181 1.313 1.313 0 0 0-.198-.094 1.341 1.341 0 0 0-.23-.064 2.125 2.125 0 0 0-.255-.03 3.077 3.077 0 0 0-.198-.006 3.313 3.313 0 0 0-.245.008 2.142 2.142 0 0 0-.232.03 1.318 1.318 0 0 0-.194.05 1.304 1.304 0 0 0-.171.071.881.881 0 0 0-.159.102.687.687 0 0 0-.062.057.765.765 0 0 0-.137.194.677.677 0 0 0-.048.13c-.031.118-.047.24-.047.36 0 .152.019.287.056.401a.866.866 0 0 0 .156.287.816.816 0 0 0 .016.019.966.966 0 0 0 .196.167 1.171 1.171 0 0 0 .093.054 1.764 1.764 0 0 0 .2.09 2.466 2.466 0 0 0 .205.065l1.045.291a2.866 2.866 0 0 1 .325.111 2.383 2.383 0 0 1 .199.093 1.413 1.413 0 0 1 .296.202 1.292 1.292 0 0 1 .1.1 1.25 1.25 0 0 1 .214.34 1.507 1.507 0 0 1 .036.092c.058.168.088.365.088.592a2.29 2.29 0 0 1 0 .01c0 .17-.02.329-.058.473a1.276 1.276 0 0 1-.413.657c-.315.267-.785.401-1.407.401-.312 0-.587-.04-.825-.118a1.962 1.962 0 0 1-.025-.009 1.916 1.916 0 0 1-.355-.162 1.561 1.561 0 0 1-.257-.19 1.43 1.43 0 0 1-.37-.538 1.774 1.774 0 0 1-.115-.502 2.132 2.132 0 0 1-.008-.182Z" fill="#231f20" fill-rule="evenodd" data-name="Path 61"/><g data-name="Group 45"><path d="M177.728 148.49h1.99a2.88 2.88 0 0 1 .425.029c.151.023.29.058.416.106a1.6 1.6 0 0 1 .133.058 1.77 1.77 0 0 1 .461.32 1.618 1.618 0 0 1 .175.202 2.036 2.036 0 0 1 .304.615 2.426 2.426 0 0 1 .04.145c.068.29.102.593.102.91v1.1a4.375 4.375 0 0 1-.04.59c-.024.194-.069.38-.132.557a2.22 2.22 0 0 1-.247.491 1.544 1.544 0 0 1-.38.394 1.786 1.786 0 0 1-.538.262 2.434 2.434 0 0 1-.71.094h-1.999v-5.874Zm.518 5.432h1.457a1.898 1.898 0 0 0 .492-.062 1.733 1.733 0 0 0 .117-.036c.189-.066.353-.173.492-.32.134-.143.242-.329.322-.559a2.184 2.184 0 0 0 .009-.027 2.107 2.107 0 0 0 .078-.323 3.17 3.17 0 0 0 .038-.363 4.288 4.288 0 0 0 .005-.21v-1.156a3.888 3.888 0 0 0-.019-.389 2.75 2.75 0 0 0-.065-.388 2.263 2.263 0 0 0-.014-.051 2.013 2.013 0 0 0-.118-.324 1.5 1.5 0 0 0-.174-.286 1.236 1.236 0 0 0-.485-.375 1.474 1.474 0 0 0-.367-.104 2 2 0 0 0-.307-.023h-1.46v4.996Z" fill="#231f20" fill-rule="evenodd" data-name="Path 60"/><path d="M168.893 149.158h-.066l.016.256.004 4.95h-.506v-5.875h.684l2.863 5.182h.066l-.012-.196-.008-4.986h.518v5.874h-.688l-2.87-5.205Z" fill="#231f20" fill-rule="evenodd" data-name="Path 59"/><path d="m159.084 154.363 2.002-5.874h.784l2.006 5.874h-.53l-.599-1.789h-2.542l-.595 1.79h-.526Zm1.267-2.23h2.25l-1.079-3.218h-.093l-1.078 3.218Z" fill="#231f20" fill-rule="evenodd" data-name="Path 58"/><path d="m154.638 152.78.21.9a2.002 2.002 0 0 0 .096.319 2.081 2.081 0 0 0 .019.045 2.303 2.303 0 0 0 .08.172 1.682 1.682 0 0 0 .086.147h-.541a1.178 1.178 0 0 1-.127-.243 1.672 1.672 0 0 1-.018-.049 3.062 3.062 0 0 1-.106-.364l-.22-.909a1.151 1.151 0 0 0-.093-.253 1.02 1.02 0 0 0-.07-.116 1.192 1.192 0 0 0-.25-.262 1.158 1.158 0 0 0-.011-.009 1.234 1.234 0 0 0-.324-.172 1.364 1.364 0 0 0-.274-.065 1.264 1.264 0 0 0-.076-.007h-1.379v2.45h-.518v-5.875h2.056c.371 0 .685.05.94.15a1.39 1.39 0 0 1 .375.212 1.123 1.123 0 0 1 .36.54c.042.126.068.267.08.421a2.513 2.513 0 0 1 .007.188v.325a1.82 1.82 0 0 1-.046.42 1.306 1.306 0 0 1-.244.515 1.35 1.35 0 0 1-.472.375 1.92 1.92 0 0 1-.37.136 1.852 1.852 0 0 1 .186.084 1.568 1.568 0 0 1 .126.073c.09.06.17.13.236.21a1.097 1.097 0 0 1 .141.218 1.25 1.25 0 0 1 .027.058 1.792 1.792 0 0 1 .062.17c.017.053.032.11.046.17a2.808 2.808 0 0 1 .006.025Zm-1.468-3.854h-1.53v2.546h1.429c.255 0 .47-.027.642-.082a1.274 1.274 0 0 0 .207-.086.864.864 0 0 0 .436-.516 1.473 1.473 0 0 0 .057-.274 1.859 1.859 0 0 0 .01-.209v-.282a1.771 1.771 0 0 0-.017-.258 1.38 1.38 0 0 0-.04-.185.807.807 0 0 0-.2-.347.804.804 0 0 0-.181-.136 1.162 1.162 0 0 0-.188-.084 1.434 1.434 0 0 0-.017-.006 1.687 1.687 0 0 0-.43-.075 2.89 2.89 0 0 0-.178-.006Z" fill="#231f20" fill-rule="evenodd" data-name="Path 57"/><path d="M144.4 154.363h-2.017v-5.874h1.99a2.928 2.928 0 0 1 .473.037 2.607 2.607 0 0 1 .15.03 1.66 1.66 0 0 1 .331.11 1.39 1.39 0 0 1 .186.105 1.095 1.095 0 0 1 .356.387c.084.155.128.34.13.559a1.761 1.761 0 0 1 .001.024v.38a1.44 1.44 0 0 1-.055.4 1.321 1.321 0 0 1-.003.012 1.14 1.14 0 0 1-.176.359.993.993 0 0 1-.298.266.96.96 0 0 1-.248.102 1.212 1.212 0 0 1-.171.032 1.52 1.52 0 0 1 .272.046 1.231 1.231 0 0 1 .211.079 1.224 1.224 0 0 1 .294.196 1.087 1.087 0 0 1 .068.069c.1.108.174.233.226.372a1.298 1.298 0 0 1 .074.372 1.48 1.48 0 0 1 .003.082v.303a2.999 2.999 0 0 1-.016.313 2.029 2.029 0 0 1-.052.298 1.554 1.554 0 0 1-.027.091 1.133 1.133 0 0 1-.168.332 1.002 1.002 0 0 1-.14.152 1.32 1.32 0 0 1-.549.276 1.835 1.835 0 0 1-.005.001 2.46 2.46 0 0 1-.278.054 4.117 4.117 0 0 1-.562.035Zm-.008-2.84h-1.499v2.4h1.492a4.432 4.432 0 0 0 .298-.01 2.964 2.964 0 0 0 .225-.023 1.073 1.073 0 0 0 .222-.053.877.877 0 0 0 .188-.093.738.738 0 0 0 .266-.337c.064-.149.095-.348.095-.6v-.342a1.055 1.055 0 0 0-.02-.21.8.8 0 0 0-.071-.207.798.798 0 0 0-.257-.294 1.044 1.044 0 0 0-.21-.111 1.411 1.411 0 0 0-.195-.061 2.251 2.251 0 0 0-.534-.059Zm-.081-2.627h-1.418v2.203h1.472c.233 0 .428-.032.586-.094a.814.814 0 0 0 .265-.164.849.849 0 0 0 .246-.457 1.258 1.258 0 0 0 .024-.252v-.34a1.1 1.1 0 0 0-.025-.234.972.972 0 0 0-.037-.13.682.682 0 0 0-.2-.283.991.991 0 0 0-.364-.184 1.484 1.484 0 0 0-.207-.043 2.423 2.423 0 0 0-.342-.022Z" fill="#231f20" fill-rule="evenodd" data-name="Path 56"/></g></g><path d="M334.967 139.621h-2.259l1.775 1.774h-192.1v1.773h192.1l-1.775 1.774h2.26l2.66-2.66-2.66-2.66Z" fill="#231f20" fill-rule="evenodd" data-name="Path 55"/><g data-name="Group 44"><g data-name="Group 43"><path d="m195.596 118.722 7.758-4.479-7.758-4.479v8.958Z" fill="#231f20" fill-rule="evenodd" data-name="Path 54"/><path d="M335.006 126.32v-2.55a28.759 28.759 0 0 0-.121-1.127c-.044-.34-.092-.656-.145-.95a13.008 13.008 0 0 0-.131-.642c-.17-.721-.409-1.326-.722-1.816a4.412 4.412 0 0 0-1.215-1.25 9.388 9.388 0 0 0-.708-.443 14.558 14.558 0 0 0-1.144-.58 12.607 12.607 0 0 0 2.178-1.21 9.588 9.588 0 0 0 1.899-1.737 6.495 6.495 0 0 0 1.44-3.418 8.63 8.63 0 0 0 .064-1.069v-2.31a17.668 17.668 0 0 0-.148-2.348 11.89 11.89 0 0 0-.682-2.74 8.312 8.312 0 0 0-2.562-3.524 9.781 9.781 0 0 0-2.224-1.33 13.525 13.525 0 0 0-2.166-.727c-1.523-.379-3.292-.595-5.306-.648a38.174 38.174 0 0 0-1.009-.013h-17.008v36.638H317.3v-11.643h1.66c.45 0 .89.033 1.323.096a2.975 2.975 0 0 1 1.191.445 2.556 2.556 0 0 1 .624.575 3.405 3.405 0 0 1 .29.436c.248.44.421 1.046.517 1.815l.217 2.84c.096.594.252 1.21.469 1.852a23.602 23.602 0 0 0 .373 1.03 18.974 18.974 0 0 0 .3.726 22.773 22.773 0 0 0 .253.555c.068.144.134.28.198.405a10.212 10.212 0 0 0 .187.351 13.839 13.839 0 0 0 .068.122c.147.258.236.39.267.395a.011.011 0 0 0 .002 0h12.389a14.804 14.804 0 0 1-.672-.998 31.583 31.583 0 0 1-.038-.06 13.62 13.62 0 0 1-.491-.855 17.88 17.88 0 0 1-.327-.649 13.836 13.836 0 0 1-.62-1.535 15.29 15.29 0 0 1-.077-.233 9.542 9.542 0 0 1-.25-.938 8.904 8.904 0 0 1-.147-.939Zm-13.28-14.338h-4.402v-7.24h4.426c.403 0 .75.05 1.04.152a1.947 1.947 0 0 1 .26.111 2.004 2.004 0 0 1 .793.734 2.974 2.974 0 0 1 .307.684 3.798 3.798 0 0 1 .102.411 6.832 6.832 0 0 1 .115 1.022 7.683 7.683 0 0 1 .006.301v.745a3.35 3.35 0 0 1-.818 2.189 2.76 2.76 0 0 1-.842.65 2.223 2.223 0 0 1-.736.226 2.1 2.1 0 0 1-.25.015Z" fill="#231f20" fill-rule="evenodd" data-name="Path 53"/><path d="M270.757 111.284v5.846a19.184 19.184 0 0 0 .397 3.91 15.233 15.233 0 0 0 1.24 3.631 13.283 13.283 0 0 0 2.152 3.152 12.79 12.79 0 0 0 2.626 2.176 14.624 14.624 0 0 0 .5.302 14.835 14.835 0 0 0 2.454 1.118 18.7 18.7 0 0 0 1.733.518 19.53 19.53 0 0 0 2.803.472 25.721 25.721 0 0 0 2.502.117 25.198 25.198 0 0 0 3.346-.21 17.661 17.661 0 0 0 3.186-.714 14.187 14.187 0 0 0 .949-.35c2.069-.85 3.76-1.985 5.076-3.405a13.21 13.21 0 0 0 2.887-4.908c.609-1.852.914-3.788.914-5.809v-5.87a18.228 18.228 0 0 0-.914-5.75 13.342 13.342 0 0 0-2.887-4.906c-1.315-1.428-3.007-2.57-5.076-3.429a15.792 15.792 0 0 0-3.195-.923c-1.315-.243-2.752-.364-4.31-.364a25.215 25.215 0 0 0-3.365.213 17.653 17.653 0 0 0-3.2.72 14.176 14.176 0 0 0-.953.354 15.858 15.858 0 0 0-2.909 1.555 12.681 12.681 0 0 0-2.179 1.874 13.172 13.172 0 0 0-2.875 4.918 18.554 18.554 0 0 0-.902 5.762Zm12.076 6.592v-7.048a13.485 13.485 0 0 1 .169-2.106 6.327 6.327 0 0 1 .397-1.44 5.669 5.669 0 0 1 .24-.509 3.849 3.849 0 0 1 1.323-1.43c.569-.37 1.303-.553 2.202-.553a3.73 3.73 0 0 1 1.792.432 4.033 4.033 0 0 1 1.353 1.191 4.69 4.69 0 0 1 .018.024 5.125 5.125 0 0 1 .565 1.017 6.84 6.84 0 0 1 .3.883 8.633 8.633 0 0 1 .244 1.34 11.054 11.054 0 0 1 .058 1.15v7.025a9.308 9.308 0 0 1-.131 1.585 8.227 8.227 0 0 1-.146.676 6.358 6.358 0 0 1-.392 1.097 5.14 5.14 0 0 1-.426.744c-.36.52-.814.934-1.359 1.238a3.598 3.598 0 0 1-1.362.429 4.523 4.523 0 0 1-.514.028 4.351 4.351 0 0 1-.955-.1 3.377 3.377 0 0 1-.934-.357 4.054 4.054 0 0 1-1.347-1.238 5.416 5.416 0 0 1-.62-1.2 6.678 6.678 0 0 1-.198-.629 8.39 8.39 0 0 1-.259-1.64 9.966 9.966 0 0 1-.018-.609Z" fill="#231f20" fill-rule="evenodd" data-name="Path 52"/><path d="M239.92 104.79h8.949v27.736h12.028V104.79h8.973v-8.9h-29.95v8.9Z" fill="#231f20" fill-rule="evenodd" data-name="Path 51"/><path d="M227.606 109.167h11.427a11.984 11.984 0 0 0-.971-4.686 13.688 13.688 0 0 0-.064-.148 13.587 13.587 0 0 0-2.923-4.259 14.176 14.176 0 0 0-3.582-2.567 16.689 16.689 0 0 0-.988-.464 14.21 14.21 0 0 0-4.173-1.063 17.434 17.434 0 0 0-1.805-.092c-1.957 0-3.72.196-5.293.59a18.063 18.063 0 0 0-2.485.807 14.563 14.563 0 0 0-1.701.828 13.138 13.138 0 0 0-2.496 1.836 11.88 11.88 0 0 0-.643.655 13.633 13.633 0 0 0-2.153 3.15 15.105 15.105 0 0 0-1.239 3.633 19.328 19.328 0 0 0-.397 3.922v5.774c0 1.33.132 2.633.397 3.908a15.646 15.646 0 0 0 1.227 3.633 13.247 13.247 0 0 0 2.14 3.164 12.67 12.67 0 0 0 2.682 2.221 14.412 14.412 0 0 0 .446.268 15.166 15.166 0 0 0 2.482 1.134 18.952 18.952 0 0 0 1.692.513 18.9 18.9 0 0 0 2.751.479 25.035 25.035 0 0 0 2.542.123 17.59 17.59 0 0 0 4.045-.452 15.476 15.476 0 0 0 1.716-.51 14.323 14.323 0 0 0 3.662-1.939 13.13 13.13 0 0 0 .957-.78 12.511 12.511 0 0 0 3.067-4.186 12.44 12.44 0 0 0 1.089-4.579 14.619 14.619 0 0 0 .018-.737h-11.427a6.053 6.053 0 0 1-.072.953 4.586 4.586 0 0 1-.217.851 5.072 5.072 0 0 1-.354.776 3.947 3.947 0 0 1-.392.572 3.517 3.517 0 0 1-.643.611 3.075 3.075 0 0 1-.39.243 2.907 2.907 0 0 1-.497.205 2.094 2.094 0 0 1-.61.095 4.311 4.311 0 0 1-.95-.1 3.288 3.288 0 0 1-.927-.357 3.867 3.867 0 0 1-1.31-1.238 5.483 5.483 0 0 1-.571-1.14 6.874 6.874 0 0 1-.212-.689 8.862 8.862 0 0 1-.254-1.77 10.147 10.147 0 0 1-.01-.455v-7.192a13.51 13.51 0 0 1 .12-1.773 14.79 14.79 0 0 1 .036-.26 6.13 6.13 0 0 1 .404-1.47 5.616 5.616 0 0 1 .209-.444 3.85 3.85 0 0 1 1.287-1.419c.48-.319 1.087-.5 1.823-.542a6.079 6.079 0 0 1 .354-.01c.203 0 .462.068.776.205a4.643 4.643 0 0 1 .103.047c.36.168.71.428 1.046.781.332.348.62.793.867 1.335a6.806 6.806 0 0 1 .01.025 4.047 4.047 0 0 1 .287.942c.058.322.087.67.087 1.042Z" fill="#231f20" fill-rule="evenodd" data-name="Path 50"/><path d="M160.113 122.375 154.7 95.888h-12.317l8.733 36.638h17.946l8.805-36.638h-12.293l-5.461 26.487Z" fill="#231f20" fill-rule="evenodd" data-name="Path 49"/></g><path d="M191.717 123.697h15.516v8.83H179.64V95.887h27.593v8.902h-15.516v18.907Z" fill="#ffdf24" fill-rule="evenodd" data-name="Path 48"/></g></g></svg>