<svg xmlns="http://www.w3.org/2000/svg" width="356.305" height="253.704" viewBox="10633.9 4067.525 356.305 253.704"><g data-name="Group 193"><path d="m10932.47 4137.041 37.06-41.505-.01-28.01h-117.818l16.43 30.443h51.844l8.767-.415-5.755 5.145-33.578 38.016 11.89 22.015a33.64 33.64 0 0 1 9.367-1.238c25.445.33 44.087 19.326 44.087 42.372 0 23.048-19.288 43.853-45.461 43.853-13.947 0-26.685-6.333-35.824-16.373l-23.722 22.818c15.206 15.522 36.776 24.078 59.787 24.515 47.285.897 80.671-33.21 80.671-74.7 0-28.667-17.26-58.609-57.735-66.936" fill="#192541" fill-rule="evenodd" data-name="Path 272"/><path d="m10785.049 4216.366-15.846-29.356h-54.29l40.769-86.138-18.02-33.347h-5.3l-98.462 208.037h39.101l28.005-59.196h84.043Z" fill="#192541" fill-rule="evenodd" data-name="Path 271"/><path d="M10784.25 4289.353c.136-.607 1.169-3.493 1.334-4.087 4.015-14.379 20.254-25.576 45.646-42.273 34.585-22.741 49.35-42.797 49.372-70.159.028-34.81-26.834-62.004-68.118-62.004-25.687 0-45.977 15.191-56.054 32.307l17.77 32.964c3.587-19.781 18.584-33.753 37.582-33.832 17.82-.076 32.095 11.882 32.095 30.806-.776 16.682-9.528 30.773-40.247 49.727-46.79 28.868-61.014 57.474-58.504 98.427h141.938l-17.346-32.14h-75.89l-9.578.264Z" fill="#192541" fill-rule="evenodd" data-name="Path 270"/></g></svg>