<svg xmlns="http://www.w3.org/2000/svg" width="455.211" height="334.321" viewBox="1141.179 1194.066 455.211 334.321"><g data-name="Group 207"><g data-name="Group 206"><path d="M1384.208 1314.793c-5.484-.247-10.912-.318-15.722-.306-5.721.012-15.082.244-15.082.244-.856 5.176-15.494 83.51-15.95 85.51 0 0 14.131-.554 24.108-.501.007-.06 1.647-18.751 1.647-18.751l12.136.17c.21 1.474 2.808 18.847 2.842 19.065 0 0 13.315.487 24.098 1.231-.05-.215-18.023-86.363-18.077-86.662Zm-10.814 49.365-8.626-.119 3.64-35.455 5.027 35.575h-.041Z" fill="#fff" fill-rule="evenodd" data-name="Path 331"/><path d="M1529.186 1396.552c-3.546-8.256-4.71-10.276-4.71-10.276-3.186-5.673-6.478-8.965-9.903-12.31-2.704-2.64-7.297-6.073-9.117-7.405-3.941-2.995-19.42-14.743-19.42-14.743-1.604-1.275-2.42-2.464-2.821-3.23-.086-.165-.245-.56-.426-1.029l-6.831-18.6 6.491 1.671c1.836.391 2.433 1.842 2.433 1.842l4.062 10.234 24.125 17.626.095.07.001.002s-.06-.086-.169-.236l-10.652-24.122s-2.462-7.279-9.782-14.096-15.63-8.203-15.63-8.203l-24.897-5.85s7.389 23.732 10.334 33.196c0 0 1.338 4.553 1.93 5.838 1.424 3.193 4.313 8.01 10 12.825 0 0 1.13 1.18 6.568 5.035.978.715 18.326 13.537 20.005 14.661 3.318 2.221 4.121 5.352 4.121 5.352l7.263 18.53-8.577-2.267s-1.707-.432-2.3-1.825l-3.884-10.449c-1.427-.993-25.722-17.739-25.771-17.772-.01-.008 7.124 22.99 7.926 25.772.777 2.408 2.356 7.145 8.105 12.017 2.96 2.51 6.924 5.033 12.292 7.032 0 0 3.986 1.65 12.144 3.805 7.805 2.061 30.448 8.522 31.087 8.73-.046-.106-10.66-23.83-14.092-31.825Z" fill="#fff" fill-rule="evenodd" data-name="Path 330"/><path d="m1268.09 1324.102 5.092-16.459c-17.591 3.336-44.739 11.428-44.739 11.428-.226.506-6.959 15.446-7.601 16.885 1.194-.373 13.092-3.599 14.293-3.93l-36.956 90.77c.005 0 16.392-4.524 24.814-6.406.076-.214 30.446-88.85 30.446-88.85s13.434-3.19 14.65-3.438Z" fill="#fff" fill-rule="evenodd" data-name="Path 329"/><path d="M1248.255 1410.887s14.005-2.682 23.257-4.025l20.36-86.83c-7.784 1.111-18.018 3.052-18.018 3.052-.731 2.505-25.53 87.567-25.6 87.803Z" fill="#fff" fill-rule="evenodd" data-name="Path 328"/><path d="M1421.365 1403.03c2.948.296 9.819 1.068 11.78 1.306l-7.011-39.076s25.43 41.224 25.562 41.427c.544.084 8.457 1.354 11.27 1.84 2.82.486 9.896 1.796 11.26 2.058l-25.065-87.774c-.507-.095-7.712-1.396-9.256-1.656-1.544-.26-7.725-1.24-9.271-1.469.718 3.137 8.489 37.055 8.696 37.953-.22-.364-21.836-38.187-22.706-39.813-1.47-.171-6.617-.737-8.826-.952-2.206-.215-8.833-.785-8.833-.785.78 6.318 10.585 85.655 10.611 85.874 1.878.152 8.845.771 11.79 1.068Z" fill="#fff" fill-rule="evenodd" data-name="Path 327"/><path d="M1309.691 1333.54c-.08.49-11.671 69.648-11.709 69.87 2.452-.248 9.057-.907 12.08-1.17 3.02-.265 12.091-.924 12.091-.924l7.258-69.509a1037.4 1037.4 0 0 1 7.671-.462c1.28-.066 7.225-.326 7.674-.343.074-1.334.828-14.697.898-15.955h-.006c-20.69.358-47.846 4.084-47.846 4.084l-1.762 8.128-1.763 8.156c.073-.01 7.276-.945 7.704-.997 1.285-.156 6.424-.74 7.71-.878Z" fill="#fff" fill-rule="evenodd" data-name="Path 326"/><path d="M1414.209 1441.797c3.31 2.067 6.598 4.15 9.863 6.251-18.409-1.163-41.454-1.793-55.282-1.793-13.831 0-36.886.63-55.294 1.793a862.417 862.417 0 0 1 9.862-6.25c-31.946 5.183-97.88 14.808-97.88 14.808s48.522-1.503 71.194-3.836a845.857 845.857 0 0 0-11.629 6.764c27.852-2.645 62.782-4.005 83.741-4.005 20.96 0 55.89 1.36 83.74 4.005a828.628 828.628 0 0 0-11.628-6.764c22.672 2.333 71.196 3.836 71.196 3.836s-65.937-9.625-97.883-14.809Z" fill="#fff" fill-rule="evenodd" data-name="Path 325"/></g><g data-name="Group 205"><path d="m1413.425 1276.098-44.644-60.519-44.45 60.52c12.88-1.31 28.16-2.068 44.55-2.068 16.386 0 31.664.758 44.544 2.067Z" fill="#091c33" fill-rule="evenodd" data-name="Path 324"/><path d="m1404.504 1303.355.242 2.645s4.245.311 6.365.487c-.005-1.226-.017-2.45-.034-3.676 2.309.194 4.617.406 6.927.631a610.401 610.401 0 0 0 1.969 3.85c2.128.213 6.387.676 6.388.676-.294-.89-.586-1.78-.878-2.672a1872.996 1872.996 0 0 1-12.02-19.975l-7.305-.664a6036.81 6036.81 0 0 1-1.654 18.698Zm6.709-13.358c1.367 2.824 2.77 5.65 4.215 8.481-1.46-.14-2.92-.274-4.38-.4a387.515 387.515 0 0 0-.164-8.11c.11.008.219.02.329.03Z" fill="#091c33" fill-rule="evenodd" data-name="Path 323"/><path d="M1394.84 1305.4c2.126.11 6.38.365 6.38.365l-.188-2.475a1836.65 1836.65 0 0 1-5.07-5.994l.282-.074c.44-.095.978-.484 1.47-.996.48-.497.782-1.483.571-2.637-.3-1.656-.604-3.31-.9-4.965-.259-1.412-.895-2.579-1.913-3.48a5.705 5.705 0 0 0-3.585-1.466c-4.036-.211-8.076-.369-12.114-.472.534 7.228 1.075 14.455 1.623 21.683 2.126.053 4.251.12 6.375.2l-.832-7.448c1.072.04 2.14.084 3.21.131a303.162 303.162 0 0 0 4.692 7.628Zm-8.467-12.86c-.148-1.347-.298-2.694-.445-4.04 1.492.055 2.985.12 4.477.19.862.04 1.343.487 1.469 1.336l.224 1.531c.126.834-.252 1.222-1.134 1.178-1.531-.072-3.06-.137-4.591-.195Z" fill="#091c33" fill-rule="evenodd" data-name="Path 322"/><path d="M1362.723 1283.1a313.491 313.491 0 0 1-7.287 19.167l-.196 2.631c2.12-.054 4.24-.096 6.359-.124.345-1.243.684-2.486 1.018-3.729 2.306-.027 4.612-.036 6.915-.033.297 1.24.603 2.48.911 3.72 2.123.008 4.25.03 6.374.063l-.13-2.63a308.371 308.371 0 0 1-6.826-19.1c-2.38-.008-4.76.003-7.138.034Zm1.216 13.143a374.004 374.004 0 0 0 2.13-8.219h.328a370.51 370.51 0 0 0 1.915 8.198c-1.458 0-2.915.007-4.373.021Z" fill="#091c33" fill-rule="evenodd" data-name="Path 321"/><path d="M1426.966 1291.87c2.017 5.63 4.054 11.261 6.118 16.892 2.125.265 4.251.543 6.38.834a2454.323 2454.323 0 0 1-6.723-16.961c1.447.2 6.047.672 6.046.672a623.11 623.11 0 0 0-.666-1.525l-1.495-3.514a463.055 463.055 0 0 0-17.429-2.319c.551 1.73 1.108 3.46 1.666 5.19 2.033.23 4.068.474 6.103.73Z" fill="#091c33" fill-rule="evenodd" data-name="Path 320"/><path d="M1344.42 1300.518c-1.777.085-3.555.18-5.328.284l-.873 5.115c2.682-.157 5.365-.293 8.05-.408 1.578-.069 2.907-.54 3.939-1.422 1.034-.88 1.613-2.015 1.747-3.423.547-5.784 1.09-11.569 1.627-17.353-1.863.062-3.728.137-5.593.222a5420.38 5420.38 0 0 1-2.029 15.68c-.106.832-.617 1.26-1.54 1.305Z" fill="#091c33" fill-rule="evenodd" data-name="Path 319"/><path d="M1320.309 1307.275c2.959-.275 5.916-.526 8.87-.75 1.611-.121 2.985-.639 4.119-1.556 1.13-.917 1.822-2.072 2.093-3.485a4986.844 4986.844 0 0 0 3.29-17.426c-1.86.124-3.72.26-5.581.409-1.16 5.252-2.34 10.506-3.528 15.76-.187.836-.735 1.283-1.662 1.357-1.265.103-2.534.211-3.802.323-.904.082-1.254-.29-1.032-1.128 1.394-5.27 2.344-10.538 3.704-15.806-1.866.172-3.732.357-5.598.553-1.713 5.857-3.029 11.714-4.783 17.568-.43 1.425-.29 2.51.421 3.27.711.76 1.878 1.062 3.489.911Z" fill="#091c33" fill-rule="evenodd" data-name="Path 318"/><path d="M1296.114 1309.795c4.438-.62 8.874-1.181 13.306-1.689 1.376-4.143 2.745-8.285 4.098-12.429-1.982.229-3.962.47-5.944.722-.874 2.422-1.756 4.842-2.637 7.264-1.435.182-2.87.37-4.304.564-.927.126-1.217-.228-.878-1.08 1.212-3.065 2.417-6.13 3.615-9.195.337-.85.92-1.329 1.784-1.448 2.358-.322 4.716-.627 7.074-.912l2.14-1.823c.397-1.188.785-2.377 1.177-3.566-3.523.418-7.048.877-10.57 1.378-1.382.196-2.68.796-3.912 1.796a9.47 9.47 0 0 0-2.775 3.68c-1.795 4.245-3.607 8.49-5.435 12.735-.623 1.448-.646 2.525-.034 3.25.612.726 1.717.974 3.295.753Z" fill="#091c33" fill-rule="evenodd" data-name="Path 317"/><path d="m1533.304 1438.608 13.999-9.2-15.094-34.06c-2.943-7.171-5.085-11.132-5.085-11.132-5.352-9.635-15.326-17.032-15.326-17.032l5.068-6.472s-8.1-18.297-12.318-27.876c-4.219-9.577-13.042-18.279-24.036-21.603-10.995-3.324-30.657-7.228-30.657-7.228l-5.052 14.555c-4.436-.853-16.591-2.664-16.591-2.664l-2.88 10.69-6.521-11.944s-28.166-4.498-67.238-3.324c-37.35 1.124-70.434 6.988-70.434 6.988l-6.032-14.527c-21.978 3.965-49.068 12.468-49.068 12.468l-9.046 20.24 8.153 11.213-30.99 76.116 13.906 9.645-41.553 56.33h142.945l59.33 23.77 59.33-23.77h142.946l-37.756-51.183Zm-304.115-4.228c-2.11.556-10.01 2.73-10.27 2.802l-17.623-12.224c3.94-1.152 11.817-3.35 22.766-5.927l15.204 12.792c-1.247.305-7.965 2.002-10.077 2.557Zm43.699-8.37c-2.463.43-8.617 1.57-9.837 1.803l-13.244-14.235a634.59 634.59 0 0 1 14.647-2.58c2.73-.45 5.475-.873 8.223-1.285l10.655 14.574c-.858.136-7.837 1.27-10.444 1.723Zm44.272-5.452c-2.151.188-8.969.852-10.225.984l-7.962-15.236c4.468-.476 8.937-.907 13.397-1.282 3.344-.28 6.774-.556 10.268-.817l5.328 15.51c-1.45.1-8.654.653-10.806.841Zm34.52-2.089c-4.791.1-9.494.333-10.096.355l-3.764-15.62a425.6 425.6 0 0 1 12.174-.444c3.664-.077 7.465-.104 11.421-.08l1.059 15.705c-.131.001-5.517-.025-10.793.084Zm46.97.937c-.579-.04-5.341-.42-10.254-.668-4.904-.25-9.957-.366-10.729-.392l.893-15.284c3.932.144 8.006.328 12.25.554 3.936.21 7.72.44 11.375.687l-3.536 15.103Zm26.874 2.981c-5.283-.653-17.272-1.884-20.515-2.063l4.267-15.384c8.413.647 16.044 1.533 23.116 2.343l-6.868 15.104Zm36.027 4.915c-.305-.057-15.613-2.743-19.047-3.328l8.475-14.452c7.917 1.19 15.074 2.452 21.793 3.723l-11.221 14.057Zm23.382 5.105c-.559-.136-1.088-.332-1.633-.481-4.26-1.168-7.593-2.885-10.048-4.505l13.115-15.522.068.054c.146.114.306.22.456.333 2.167 1.633 4.62 3.113 7.32 4.394.662.313 7.053 2.789 9.401 3.423.489.123 32.378 9.03 35.733 10.095l.786.251-15.777 10.33c-4.931-1.018-29.63-5.996-39.421-8.372Z" fill="#091c33" fill-rule="evenodd" data-name="Path 316"/></g><path d="m11808.735 4970.747 7.024-4.677s-14.724-33.155-17.775-40.22c-3.051-7.065-5.861-12.364-5.861-12.364-4.897-8.108-10.578-12.968-10.578-12.968l3.29-4.2s-8.487-19.119-14.146-32.047c-5.659-12.928-16.7-19.84-16.7-19.84-6.69-4.952-16.458-7.013-16.458-7.013l-24.867-6.11-8.18-17.724c-1.783-.344-6.364-1.184-13.267-2.148l-61.956-83.991-61.683 83.619a426.058 426.058 0 0 0-13.935 2.065l-7.276 15.666s-22.51 4.589-25.446 5.26c-3.78.861-8.536 2-11.362 2.745-5.681 1.499-20.057 5.598-22.617 6.393l-4.79 1.49-12.273 27.454 8.17 11.24-31.397 77.118 6.99 5.026-51.987 70.476h165.216l62.39 25.77 62.39-25.77h165.215l-48.13-65.25Z" fill-rule="evenodd" fill="url(&quot;#a&quot;)" transform="translate(-10260.477 -3533.379)" data-name="Path 315"/></g><defs><linearGradient x1="-.013" y1=".5" x2="1.104" y2=".5" id="a"><stop stop-color="#f3dc89" offset=".071"/><stop stop-color="#efd886" offset=".211"/><stop stop-color="#e5cc7e" offset=".346"/><stop stop-color="#d4b970" offset=".478"/><stop stop-color="#bc9e5e" offset=".609"/><stop stop-color="#bc9e5e" offset=".611"/><stop stop-color="#c2a563" offset=".639"/><stop stop-color="#f3dc89" offset=".851"/><stop stop-color="#ddc478" offset=".914"/><stop stop-color="#bc9e5e" offset="1"/></linearGradient></defs></svg>