<svg xmlns="http://www.w3.org/2000/svg" width="680.105" height="160.046" viewBox="1051.731 580.975 680.105 160.046"><g data-name="Group 201"><g data-name="Group 200"><path d="M1542.354 704.212h-23.414c-1.666 0-3.235.444-4.707 1.323-1.475.888-2.752 2.164-3.83 3.83l-10.963 16.332h16.036v.011h5.455l-6.184 9.274c-.34.491-.589.815-.735.96-.248.102-.59.149-1.033.149h-6.99c-.443 0-.69-.025-.739-.078l.444-.732 2.742-4.093h-12.505l-2.974 4.46c-.888 1.228-1.324 2.33-1.324 3.312 0 1.373 1.054 2.061 3.164 2.061h23.413c3.386 0 6.231-1.719 8.536-5.153l6.85-10.16 2.72-3.971h-.073l1.323-2.069h-21.423l6.189-9.417.809-1.03a5.559 5.559 0 0 1 1.03-.078h6.991c.397 0 .643.03.74.077-.097.096-.249.342-.445.731l-2.778 4.148h12.507l3.008-4.514c.886-1.227 1.324-2.33 1.324-3.312 0-1.373-1.054-2.06-3.164-2.06Z" fill="#0054a5" fill-rule="evenodd" data-name="Path 302"/><path d="M1380.187 603.368h13.21c2.513 0 1.721 1.845.546 2.892-1.175 1.046-3.431.983-3.431.983h-19.663l-7.674 8.9s20.327.421 28.916.421c8.588 0 12.042-6.806 15.468-14.242 3.425-7.437-5.734-8.17-5.734-8.17h-12.85c-.626 0-2.566-.419-1.292-2.409 1.272-1.989 2.614-1.526 2.614-1.526h19.523l7.943-9.242c-4.878.159-18.59.085-24.979.085-6.39 0-11.594 2.305-17.236 11.532-5.645 9.226 4.639 10.776 4.639 10.776Z" fill="#0054a5" fill-rule="evenodd" data-name="Path 301"/><path d="m1330.684 606.503-2.792 9.272-.084.296.152.206c.306.42 7.638.556 7.743.556h.002c3.233-.026 5.818-.66 8.39-2.052 2.62-1.42 4.967-3.978 7.036-6.236.668-.73 1.318-1.443 1.964-2.095l24.948-25.419-11.998.014-23.505 23.915 7.545-23.899-11.439.013-.212.684c-2.418 7.748-6.886 22.036-7.632 24.38l-.118.365Z" fill="#0054a5" fill-rule="evenodd" data-name="Path 300"/><path d="m1296.259 616.61 17.042-26.343 13.521-.015 6.323-9.176-38.878.042-6.327 9.176 13.985-.014-17.165 26.341 11.499-.012Z" fill="#0054a5" fill-rule="evenodd" data-name="Path 299"/><path d="m1477.219 725.708-6.843 10.455 18.919.072-3.169 4.786h-31.286l24.295-36.809h30.333l-3.02 4.859h-21.575l2.062 2.133-5.667 8.393h16.859l-4.052 6.111h-16.856Z" fill="#0054a5" fill-rule="evenodd" data-name="Path 298"/><path d="M1452.892 728.356h-1.324l-.365 12.665h-13.102l.806-12.665h-2.869l-8.393 12.665h-12.515l24.366-36.809h29.153c2.11 0 3.17.688 3.17 2.061 0 .982-.445 2.085-1.33 3.312l-6.698 10.083-2.356 3.614c-2.257 3.384-5.104 5.074-8.543 5.074Zm5.301-19.136c-.048-.048-.293-.077-.737-.077h-6.768l.072-.072h-5.519l2.062 2.21.07-.077-8.099 12.294h8.393c.491 0 .832-.049 1.031-.145 0-.047.072-.15.223-.293.148-.149.34-.37.587-.665l8.249-12.444.436-.73Z" fill="#0054a5" fill-rule="evenodd" data-name="Path 297"/><path d="m1436.785 704.212-26.647 20.687-10.972 16.122h-10.818l10.97-16.122 1.396-20.687h9.837l-2.13 13.379 17.355-13.379h11.01Z" fill="#0054a5" fill-rule="evenodd" data-name="Path 296"/><path d="M1394.273 710.323h-8.982l-20.322 30.698h-12.953l20.315-30.698h-12.22l4.127-6.11h34.012l-3.977 6.11Z" fill="#0054a5" fill-rule="evenodd" data-name="Path 295"/></g><g data-name="Group 199"><path d="m1077.531 644.75-11.413 17.094h25.603l11.41-17.095h-25.6Z" fill="#ec1c24" fill-rule="evenodd" data-name="Path 294"/><path d="M1088.938 627.656h-25.601l-11.41 17.094h25.6l11.411-17.094Z" fill="#ec1c24" fill-rule="evenodd" data-name="Path 293"/><path d="m1128.73 644.75 11.412-17.094h-25.602l-11.41 17.094h25.6Z" fill="#ec1c24" fill-rule="evenodd" data-name="Path 292"/><path d="M1131.525 678.932h-22.221l-9.906 14.842h22.226l9.897-14.832h25.6l11.41-17.094h-25.6l-11.406 17.084Z" fill="#ec1c24" fill-rule="evenodd" data-name="Path 291"/><path d="M1117.328 661.844h25.6l11.41-17.095h-25.6l-11.41 17.095Z" fill="#ec1c24" fill-rule="evenodd" data-name="Path 290"/><path d="m1165.75 627.656-11.411 17.094h25.377l11.308-17.094h-25.274Z" fill="#ec1c24" fill-rule="evenodd" data-name="Path 289"/></g><g data-name="Group 198"><g data-name="Group 197"><path d="m1077.34 644.913-11.412 17.098h25.606l11.413-17.098h-25.606Z" fill="#eb1f27" fill-rule="evenodd" data-name="Path 288"/><path d="M1088.754 627.815h-25.608l-11.415 17.099h25.608l11.415-17.099Z" fill="#eb1f27" fill-rule="evenodd" data-name="Path 287"/><path d="m1128.553 644.914 11.413-17.099h-25.608l-11.41 17.099h25.605Z" fill="#eb1f27" fill-rule="evenodd" data-name="Path 286"/><path d="M1131.35 679.103h-22.23l-9.906 14.844h22.23l9.903-14.834h25.602l11.413-17.1h-25.606l-11.406 17.09Z" fill="#eb1f27" fill-rule="evenodd" data-name="Path 285"/><path d="M1117.146 662.011h25.608l11.411-17.098h-25.602l-11.417 17.098Z" fill="#eb1f27" fill-rule="evenodd" data-name="Path 284"/><path d="m1165.578 627.815-11.411 17.099h25.383l11.31-17.099h-25.282Z" fill="#eb1f27" fill-rule="evenodd" data-name="Path 283"/></g><g data-name="Group 196"><path d="m1133.043 681.98-7.76 11.915h22.041l7.759-11.915h-22.04Z" fill="#0054a5" fill-rule="evenodd" data-name="Path 282"/><path d="M1177.704 647.642h-22.039l-7.759 11.914h22.04l7.758-11.914Z" fill="#0054a5" fill-rule="evenodd" data-name="Path 281"/><path d="m1222.945 666.348 7.2-10.957-30.334.052 10.181-15.018-3.657-3.863h38.658l5.585-8.747h-54.455l-43.593 66.08h56.23l5.606-8.695-33.937-.224 12.289-18.68 30.227.052Z" fill="#0054a5" fill-rule="evenodd" data-name="Path 280"/><path d="M1731.643 630.62c-.58-1.65-2.44-2.485-5.523-2.485h-52.35l-43.826 66.097h22.5l13.692-20.649h30.348c6.034 0 11.333-3.183 15.326-9.204l17.602-26.55c2.068-3.116 2.818-5.542 2.23-7.21Zm-25.147 7.84-16.121 24.31c-.938 1.414-1.408 1.708-1.408 1.708s-.479.278-1.876.278h-15.1l15.911-23.996-.13.083-3.683-3.925h9.867l-.07.045h12.13c.767 0 1.13.074 1.275.104-.08.202-.283.621-.795 1.392Z" fill="#0054a5" fill-rule="evenodd" data-name="Path 279"/><path d="m1379.01 662.406 4.26-6.417 11.995-18.097c2.067-3.117 2.817-5.542 2.23-7.21-.58-1.649-2.44-2.484-5.522-2.484h-52.35l-43.826 66.096h22.5l15.04-22.684h5.201l-1.512 22.684h23.58l.699-22.684h2.38c6.035 0 11.333-3.182 15.326-9.204Zm-6.661-23.885-14.773 22.279c-.938 1.412-1.409 1.704-1.418 1.71 0 0-.469.273-1.867.273h-15.1l14.559-21.958-.125.08-3.684-3.925h9.87l-.07.045h12.127c.766 0 1.13.075 1.276.104-.082.201-.285.621-.795 1.392Z" fill="#0054a5" fill-rule="evenodd" data-name="Path 278"/><path d="m1599.762 662.344 16.254-24.515c2.067-3.116 2.813-5.542 2.227-7.21-.582-1.649-2.436-2.484-5.52-2.484h-52.352l-43.828 66.097h22.505l15.039-22.684h5.2l-1.512 22.684h23.583l.697-22.684h2.38c6.034 0 11.334-3.183 15.327-9.204Zm-6.665-23.885-14.772 22.278c-.937 1.413-1.409 1.705-1.409 1.705-.015.01-.477.28-1.875.28h-15.099l14.562-21.964-.133.085-3.684-3.925h9.869l-.072.045h12.134c.766 0 1.127.074 1.275.104-.08.202-.286.621-.796 1.392Z" fill="#0054a5" fill-rule="evenodd" data-name="Path 277"/><path d="m1636.125 628.135-43.828 66.098h23.215l43.828-66.098h-23.215Z" fill="#0054a5" fill-rule="evenodd" data-name="Path 276"/><path d="M1469.864 630.62c-.578-1.65-2.436-2.485-5.52-2.485h-42.11c-6.034 0-11.334 3.183-15.325 9.206l-31.297 47.197c-2.065 3.118-2.817 5.544-2.23 7.211.58 1.647 2.437 2.483 5.522 2.483h42.114c6.03 0 11.33-3.182 15.324-9.202l31.297-47.2c2.065-3.117 2.815-5.543 2.225-7.21Zm-25.043 7.84-29.812 44.96c-.934 1.407-1.397 1.73-1.397 1.73-.014.01-.493.254-1.888.254h-12.716c-.719 0-1.098-.058-1.287-.104.098-.227.32-.65.81-1.39l29.813-44.96c.936-1.416 1.385-1.752 1.385-1.752l-.008.001c.022-.01.493-.236 1.906-.236h12.717c.764 0 1.127.074 1.272.105-.079.202-.284.62-.795 1.391Z" fill="#0054a5" fill-rule="evenodd" data-name="Path 275"/><path d="m1303.615 628.073-36.658 55.284c-.933 1.408-1.395 1.731-1.395 1.731s-.486.255-1.89.255h-13.324c-.72 0-1.099-.059-1.288-.106.098-.225.319-.65.81-1.39l36.983-55.774h-22.504l-37.398 56.403c-2.067 3.118-2.817 5.543-2.23 7.211.58 1.647 2.44 2.484 5.522 2.484h42.824c6.034 0 11.331-3.183 15.325-9.203l37.723-56.895h-22.5Z" fill="#0054a5" fill-rule="evenodd" data-name="Path 274"/><path d="m1521.852 668.056 2.723-4.13 3.363-5.07h-.016l1.125-1.709h-32.844l-7.197 10.91h10.33l-10.187 15.363c-.932 1.407-1.395 1.73-1.395 1.73s-.485.254-1.89.254h-12.51c-.72 0-1.097-.058-1.288-.104.097-.227.318-.65.81-1.39l29.812-44.96c.938-1.416 1.382-1.752 1.382-1.752l-.007.001c.022-.01.495-.236 1.91-.236h12.511c.765 0 1.127.074 1.274.104-.08.202-.284.621-.795 1.392l-8.79 13.253h22.502l9.206-13.883c2.065-3.116 2.815-5.542 2.227-7.21-.58-1.649-2.436-2.484-5.52-2.484h-42.012c-6.031 0-11.329 3.183-15.322 9.206l-31.298 47.197c-2.066 3.118-2.816 5.544-2.23 7.211.582 1.647 2.439 2.483 5.522 2.483h42.01c6.034 0 11.332-3.182 15.325-9.202l11.254-16.974h.015Z" fill="#0054a5" fill-rule="evenodd" data-name="Path 273"/></g></g></g></svg>