<svg xmlns="http://www.w3.org/2000/svg" width="51.883" height="36.619" viewBox="8449.217 6276.664 51.883 36.619"><g data-name="Group 60"><g data-name="Group 59"><path d="M8470.29 6302.924v-15.902l12.845 7.95-12.846 7.952Z" fill="#231f20" fill-rule="evenodd" data-name="Path 76"/></g><g data-name="Group 58"><path d="M8473.748 6313.275a141.125 141.125 0 0 0 1.411.008c4.262 0 16.499-.332 18.306-.382a484.651 484.651 0 0 0 .216-.006 7.041 7.041 0 0 0 7.03-7.014 3.908 3.908 0 0 1 .002-.02c.02-.456.387-8.241.387-10.888a34.704 34.704 0 0 0-.001-.246c-.02-2.737-.34-9.62-.382-10.536a74.123 74.123 0 0 0-.005-.101 7.042 7.042 0 0 0-7.022-7.038h-.002a584.333 584.333 0 0 0-.197-.006c-1.713-.047-14.048-.382-18.332-.382a99.626 99.626 0 0 0-.418.001c-4.95.02-17.977.383-18.098.386a7.04 7.04 0 0 0-7.037 7.012 4.003 4.003 0 0 0 0 .002 29.022 29.022 0 0 0-.005.116c-.048 1.007-.384 8.264-.384 10.792a34.583 34.583 0 0 0 0 .246c.022 2.92.385 10.582.388 10.638a7.042 7.042 0 0 0 7.024 7.038c.126.004 11.618.323 17.119.38Zm19.911-1.415.015-.001a6.009 6.009 0 0 0 6.003-6.002 6.693 6.693 0 0 1 .001-.033c.026-.57.386-8.246.386-10.85a48.551 48.551 0 0 0-.008-.828c-.052-2.992-.331-9.007-.374-9.917a213.649 213.649 0 0 0-.005-.115 6.015 6.015 0 0 0-6.003-6.027 52.209 52.209 0 0 1-.053-.002c-.922-.025-13.268-.365-18.045-.385a99.02 99.02 0 0 0-.417 0 140.636 140.636 0 0 0-1.408.008c-5.094.052-15.346.33-16.896.373a510.31 510.31 0 0 0-.197.006 6.013 6.013 0 0 0-6.017 6.003 2433.541 2433.541 0 0 0-.005.109c-.046.981-.383 8.26-.383 10.774a48.564 48.564 0 0 0 .008.827c.052 2.989.33 9.007.373 9.916a153.388 153.388 0 0 0 .006.116c0 3.335 2.693 6.027 6.003 6.027.15.004 13.163.366 18.099.387a98.94 98.94 0 0 0 .417.001 140.405 140.405 0 0 0 1.409-.008c5.339-.055 16.35-.36 17.057-.378a10.834 10.834 0 0 1 .034-.001Z" fill="#231f20" fill-rule="evenodd" data-name="Path 75"/></g></g></svg>