<svg xmlns="http://www.w3.org/2000/svg" width="36.204" height="36.619" viewBox="8404.984 6276.664 36.204 36.619"><g data-name="Group 57"><g data-name="Group 56"><g data-name="Group 55"><g data-name="Group 54"><path d="M8419.494 6290.115h4.109l.218 2.117h.093a4.47 4.47 0 0 1 .266-.379c.74-.95 2.19-2.08 4.434-2.08 3.113 0 5.448 2.086 5.448 6.568v8.996h-4.732v-8.436a6.112 6.112 0 0 0-.134-1.343c-.247-1.087-.847-1.807-1.908-1.935a2.953 2.953 0 0 0-.355-.02 2.477 2.477 0 0 0-.964.186c-.74.309-1.216.956-1.464 1.587-.124.311-.156.747-.156 1.183v8.778h-4.73v-10.366a88.595 88.595 0 0 0-.023-1.98c-.024-1.061-.063-2.012-.102-2.876Z" fill="#231f20" fill-rule="evenodd" data-name="Path 74"/></g></g><g data-name="Group 53"><g data-name="Group 52"><path d="M8412.055 6305.337v-15.222h4.732v15.222h-4.732Zm3.254-17.223a2.273 2.273 0 0 0 1.633-2.232 2.31 2.31 0 0 0-1.364-2.144 2.784 2.784 0 0 0-1.126-.222 2.97 2.97 0 0 0-.89.13 2.273 2.273 0 0 0-1.631 2.236 2.292 2.292 0 0 0 1.28 2.107 2.67 2.67 0 0 0 1.179.259 3.06 3.06 0 0 0 .919-.134Z" fill="#231f20" fill-rule="evenodd" data-name="Path 73"/></g></g></g><g data-name="Group 51"><path d="M8437.124 6313.283h-28.076a4.074 4.074 0 0 1-4.064-4.075v-28.47a4.073 4.073 0 0 1 4.064-4.074h28.076a4.074 4.074 0 0 1 4.064 4.075v28.469a4.074 4.074 0 0 1-4.064 4.075Zm-31.104-32.544v28.469a3.037 3.037 0 0 0 3.028 3.04h28.076a3.037 3.037 0 0 0 3.028-3.04v-28.47a3.037 3.037 0 0 0-3.028-3.039h-28.076a3.037 3.037 0 0 0-3.028 3.04Z" fill="#231f20" fill-rule="evenodd" data-name="Path 72"/></g></g></svg>