<svg xmlns="http://www.w3.org/2000/svg" width="36.62" height="36.618" viewBox="8313.237 6276.664 36.62 36.618"><g data-name="Group 50"><g data-name="Group 49"><path d="M8333.854 6312.765h-5.408a12.567 12.567 0 0 0-.007-.158c-.005-.105-.01-.21-.01-.314v-12.438a7.915 7.915 0 0 0-.001-.153c-.006-.298-.052-.312-.4-.313a27.044 27.044 0 0 0-.05 0c-1.228 0-2.456-.008-3.684.006a1.975 1.975 0 0 1-.02 0c-.267 0-.368-.059-.365-.366a224.647 224.647 0 0 0 .012-2.365 293.91 293.91 0 0 0-.01-2.366 1.449 1.449 0 0 1 0-.01c0-.269.078-.355.35-.355a1.325 1.325 0 0 1 .009 0c1.261.014 2.523-.003 3.785.012.294.004.38-.083.38-.372a1.505 1.505 0 0 0 0-.01 1187.684 1187.684 0 0 0-.003-.449c-.004-.603-.008-1.206-.008-1.809a89.683 89.683 0 0 1 .026-2.304 6.017 6.017 0 0 1 4.932-5.582 11.486 11.486 0 0 1 1.802-.103h.39a45.096 45.096 0 0 0 .168 0c.616-.002 1.232 0 1.848 0a95.43 95.43 0 0 0 1.227-.006 1.27 1.27 0 0 1 .018 0c.261 0 .347.085.347.35a1.274 1.274 0 0 1 0 .013 206.73 206.73 0 0 0 .002 4.19 1.285 1.285 0 0 1 0 .021c0 .291-.105.353-.383.348a1.862 1.862 0 0 1-.004 0c-.946-.016-1.892-.008-2.839-.005a2.463 2.463 0 0 0-.943.175c-.686.286-1.102.91-1.128 1.789a42.016 42.016 0 0 0-.018 1.309c0 .548.006 1.095.006 1.643a57.109 57.109 0 0 1-.002.529c-.003.282.163.268.35.267a3348.021 3348.021 0 0 1 2.215 0 3348.021 3348.021 0 0 1 2.214 0 11.16 11.16 0 0 1 .11 0c.307.004.32.036.28.35a27.473 27.473 0 0 1-.012.08 2750.635 2750.635 0 0 1-.08.59 364.429 364.429 0 0 0-.54 4.133.7.7 0 0 1-.022.109c-.046.16-.147.193-.335.193a1.662 1.662 0 0 1-.007 0 219.62 219.62 0 0 0-1.816-.006h-.951a857.447 857.447 0 0 1-.95.001 7.184 7.184 0 0 0-.15.001c-.27.006-.299.048-.302.352a12.147 12.147 0 0 0 0 .114 52807.058 52807.058 0 0 1-.001 12.438c0 .116-.007.231-.015.347a15.117 15.117 0 0 0-.007.124Z" fill="#231f20" fill-rule="evenodd" data-name="Path 71"/></g><g data-name="Group 48"><path d="M8344.175 6313.282h-25.256a5.688 5.688 0 0 1-5.682-5.68v-25.257a5.688 5.688 0 0 1 5.682-5.68h25.256a5.689 5.689 0 0 1 5.681 5.68v25.256a5.688 5.688 0 0 1-5.681 5.681Zm-29.902-30.937v25.256a4.65 4.65 0 0 0 4.646 4.646h25.256a4.65 4.65 0 0 0 4.645-4.646v-25.256a4.65 4.65 0 0 0-4.645-4.645h-25.256a4.65 4.65 0 0 0-4.646 4.645Z" fill="#231f20" fill-rule="evenodd" data-name="Path 70"/></g></g></svg>