<svg xmlns="http://www.w3.org/2000/svg" width="36.204" height="36.619" viewBox="8360.291 6276.664 36.204 36.619"><g data-name="Group 70"><g data-name="Group 69"><g data-name="Group 68"><g data-name="Group 67"><path d="M8386.698 6288.326a1.481 1.481 0 0 0 0-.007c0-.854-.734-1.569-1.6-1.558a1.706 1.706 0 0 0-.062.002c-.863.042-1.538.735-1.523 1.577.016.855.767 1.56 1.633 1.536a1.603 1.603 0 0 0 1.552-1.55Z" fill="#231f20" fill-rule="evenodd" data-name="Path 80"/></g><g data-name="Group 66"><g data-name="Group 65"><path d="M8384.92 6295.021c-.01 3.525-2.935 6.422-6.527 6.465a6.46 6.46 0 0 1-.077 0c-3.568 0-6.514-2.957-6.503-6.549.01-3.557 3.046-6.532 6.595-6.465a6.56 6.56 0 0 1 6.512 6.529 6.655 6.655 0 0 1 0 .02Zm-2.43-.032c.004-2.243-1.843-4.08-4.114-4.092-2.255-.012-4.13 1.834-4.133 4.072-.004 2.243 1.843 4.08 4.113 4.093a4.094 4.094 0 0 0 .023 0 4.123 4.123 0 0 0 4.111-4.073Z" fill="#231f20" fill-rule="evenodd" data-name="Path 79"/></g></g><g data-name="Group 64"><g data-name="Group 63"><path d="M8365.745 6300.804v-11.65a241.002 241.002 0 0 0 .025-.13c.214-1.113.428-2.226 1.034-3.215a6.666 6.666 0 0 1 1.888-2.029c1.246-.864 2.748-1.24 4.387-1.28a215.447 215.447 0 0 1 4.895-.063 220.34 220.34 0 0 1 5.71.065 7.323 7.323 0 0 1 5.26 2.042 6.965 6.965 0 0 1 .734.885 7.757 7.757 0 0 1 1.315 4.455 420.21 420.21 0 0 1 .043 3.963c.003.516.004 1.031.004 1.547a203.354 203.354 0 0 1-.05 4.68 8.613 8.613 0 0 1-.799 3.629c-.563 1.144-1.455 2.111-2.775 2.828a8.062 8.062 0 0 1-3.8.936 509.49 509.49 0 0 1-5.846.043 203.79 203.79 0 0 1-4.622-.048 8.437 8.437 0 0 1-3.858-.919 6.463 6.463 0 0 1-2.293-2.095 7.642 7.642 0 0 1-.193-.3 8.758 8.758 0 0 1-.993-3.001l-.066-.343Zm11.05-15.916a271.46 271.46 0 0 0 1.607.006c1.161.024 2.325-.03 3.487-.03a19.614 19.614 0 0 1 2.674.154 5.623 5.623 0 0 1 .705.142c1.81.49 3.002 1.85 3.18 3.816.252 2.787.202 5.58.152 8.372a227.684 227.684 0 0 0-.04 2.848 3.515 3.515 0 0 1-.015.31 7.635 7.635 0 0 1-.16.922 6.105 6.105 0 0 1-.104.403c-.43 1.46-1.35 2.45-2.762 2.914a6.502 6.502 0 0 1-1.817.299 153.15 153.15 0 0 1-10.674-.002c-2.41-.089-3.942-1.133-4.558-3.082a7.283 7.283 0 0 1-.307-2.043 193.844 193.844 0 0 1-.036-3.982c0-1.954.02-3.908.03-5.862a5.59 5.59 0 0 1 .019-.438 8.674 8.674 0 0 1 .165-1.072c.365-1.73 1.376-2.874 2.98-3.375a6.85 6.85 0 0 1 1.883-.286c1.196-.028 2.394-.021 3.591-.014Z" fill="#231f20" fill-rule="evenodd" data-name="Path 78"/></g></g></g></g><g data-name="Group 62"><g data-name="Group 61"><path d="M8392.43 6313.283h-28.075a4.074 4.074 0 0 1-4.064-4.075v-28.47a4.074 4.074 0 0 1 4.064-4.074h28.076a4.074 4.074 0 0 1 4.064 4.075v28.469a4.074 4.074 0 0 1-4.064 4.075Zm-31.103-32.544v28.469a3.036 3.036 0 0 0 3.028 3.04h28.076a3.037 3.037 0 0 0 3.028-3.04v-28.47a3.037 3.037 0 0 0-3.028-3.039h-28.076a3.037 3.037 0 0 0-3.028 3.04Z" fill="#231f20" fill-rule="evenodd" data-name="Path 77"/></g></g></g></svg>