<svg xmlns="http://www.w3.org/2000/svg" width="6.769" height="12.173" viewBox="8084.083 6287.745 6.769 12.173"><path d="m8086.543 6291.128-1.128-3.138c-.092.034-.181.07-.267.1a3.192 3.192 0 0 1-.066.024c-.959.338-1.51 3-.331 6.5a15.06 15.06 0 0 0 .07.203c1.167 3.31 3.084 5.1 4.148 5.1a.78.78 0 0 0 .259-.041l.2-.068a7.173 7.173 0 0 1 .21-.068l-1.125-3.143a2.437 2.437 0 0 1-.056.021 4.705 4.705 0 0 1-.118.04 26.867 26.867 0 0 1-.02.007c-.595.211-1.218-1.102-1.685-2.416a20.167 20.167 0 0 1-.023-.065 18.083 18.083 0 0 1-.127-.37c-.347-1.05-.575-2.099-.28-2.494a.388.388 0 0 1 .184-.137 1.89 1.89 0 0 0 .086-.03l.007-.003a2.573 2.573 0 0 1 .062-.022Zm-.69-3.292 1.125 3.13c.53-.236.845-.61.59-1.842a6.757 6.757 0 0 0-.038-.169c-.294-1.256-.953-1.313-1.612-1.137a3.316 3.316 0 0 0-.065.018Zm3.097 8.62 1.125 3.118c.617-.273 1.082-.735.532-1.883-.598-1.242-1.088-1.374-1.657-1.235Z" fill="#231f20" fill-rule="evenodd" data-name="Path 45"/></svg>