<svg xmlns="http://www.w3.org/2000/svg" width="70.172" height="70.183" viewBox="11523.682 487.683 70.172 70.183"><path d="m11593.854 554.5-12.865-12.876.66-.824a32.615 32.615 0 0 0 7.261-20.503c0-17.984-14.63-32.614-32.614-32.614-17.984 0-32.614 14.63-32.614 32.614a32.65 32.65 0 0 0 32.614 32.614 32.668 32.668 0 0 0 20.503-7.25l.824-.659 12.876 12.864 3.355-3.366Zm-17.443-14.936-.177.153a4.127 4.127 0 0 0-.088.068 1.455 1.455 0 0 0-.194.179 1.86 1.86 0 0 0-.236.271l-.152.177a27.79 27.79 0 0 1-19.268 7.744c-15.36 0-27.86-12.499-27.86-27.859 0-15.36 12.5-27.848 27.86-27.848a27.873 27.873 0 0 1 27.848 27.848 27.687 27.687 0 0 1-7.733 19.267Zm-.265.22-.003.003" fill="#231f20" fill-rule="evenodd" data-name="Path 773"/></svg>