<svg xmlns="http://www.w3.org/2000/svg" width="29.81" height="29.815" viewBox="8408.8 62.06 59.621 59.63"><g data-name="Path 25"><path d="m8468.92 119.33-10.929-10.94.56-.7a27.71 27.71 0 0 0 6.17-17.42 27.74 27.74 0 0 0-27.71-27.71 27.741 27.741 0 0 0-27.71 27.71c0 15.28 12.43 27.71 27.71 27.71a27.759 27.759 0 0 0 17.42-6.16l.7-.56 10.94 10.93 2.85-2.86Zm-14.82-12.69-.149.13c-.08.06-.17.13-.24.21a.82.82 0 0 0-.078.078 2.486 2.486 0 0 0-.122.152l-.13.15a23.605 23.605 0 0 1-16.37 6.58c-13.05 0-23.67-10.62-23.67-23.67a23.69 23.69 0 0 1 23.67-23.66 23.682 23.682 0 0 1 23.66 23.66 23.524 23.524 0 0 1-6.57 16.37Z" fill="#fff" fill-rule="evenodd"/><path d="m8468.92 119.33-10.929-10.94.56-.7a27.71 27.71 0 0 0 6.17-17.42 27.74 27.74 0 0 0-27.71-27.71 27.741 27.741 0 0 0-27.71 27.71c0 15.28 12.43 27.71 27.71 27.71a27.759 27.759 0 0 0 17.42-6.16l.7-.56 10.94 10.93 2.85-2.86Zm-14.82-12.69-.149.13c-.08.06-.17.13-.24.21a.82.82 0 0 0-.078.078 2.486 2.486 0 0 0-.122.152l-.13.15a23.605 23.605 0 0 1-16.37 6.58c-13.05 0-23.67-10.62-23.67-23.67a23.69 23.69 0 0 1 23.67-23.66 23.682 23.682 0 0 1 23.66 23.66 23.524 23.524 0 0 1-6.57 16.37Z" stroke-linejoin="round" stroke-linecap="round" stroke="#fff" fill="transparent"/></g></svg>