<svg xmlns="http://www.w3.org/2000/svg" width="273.253" height="81.839" viewBox="100.546 75.994 273.253 81.839"><g data-name="Vector Logo - Home - Black"><g data-name="Group 694"><path d="M249.269 150.547h-.092l.021.357.005 6.93h-.709v-8.223h.958l4.008 7.253h.093l-.017-.275-.01-6.978h.724v8.222h-.963l-4.018-7.286Z" fill="#231f20" fill-rule="evenodd" data-name="Path 772"/><path d="M228.113 157.833v-8.222h.725v8.222h-.725Z" fill="#231f20" fill-rule="evenodd" data-name="Path 771"/><path d="M219.419 150.222v7.611h-.725v-7.61h-2.59v-.612h5.9v.611h-2.585Z" fill="#231f20" fill-rule="evenodd" data-name="Path 770"/><path d="M210.534 149.612v5.381a4.264 4.264 0 0 1-.017.38 5.013 5.013 0 0 1-.028.24 2.819 2.819 0 0 1-.17.64 2.656 2.656 0 0 1-.312.565 3.067 3.067 0 0 1-.027.036c-.142.191-.324.36-.543.505a2.289 2.289 0 0 1-.39.208 3.211 3.211 0 0 1-.407.138 3.354 3.354 0 0 1-.475.092c-.156.02-.322.031-.498.035a6.016 6.016 0 0 1-.124.001 4.14 4.14 0 0 1-.99-.106 2.832 2.832 0 0 1-.082-.022 3.265 3.265 0 0 1-.406-.137 2.466 2.466 0 0 1-.387-.203 2.217 2.217 0 0 1-.393-.32 1.943 1.943 0 0 1-.154-.18 2.695 2.695 0 0 1-.328-.562 2.44 2.44 0 0 1-.016-.039 2.888 2.888 0 0 1-.178-.638 4.246 4.246 0 0 1-.046-.433 3.527 3.527 0 0 1-.005-.189v-5.392h.724v5.478c0 .125.012.263.035.415a3.633 3.633 0 0 0 .001.007 2.294 2.294 0 0 0 .103.41 2.708 2.708 0 0 0 .021.058 1.866 1.866 0 0 0 .175.347 2.257 2.257 0 0 0 .076.113 1.62 1.62 0 0 0 .316.325 1.959 1.959 0 0 0 .098.072 1.87 1.87 0 0 0 .316.174 2.606 2.606 0 0 0 .29.105 2.42 2.42 0 0 0 .358.076c.11.015.228.024.352.028a4.113 4.113 0 0 0 .127.002 4.06 4.06 0 0 0 .389-.017c.178-.018.34-.047.483-.089.236-.068.435-.157.6-.267a1.545 1.545 0 0 0 .017-.012 1.625 1.625 0 0 0 .263-.222 1.336 1.336 0 0 0 .14-.175 2.072 2.072 0 0 0 .188-.343 1.87 1.87 0 0 0 .045-.117 2.222 2.222 0 0 0 .1-.41 2.226 2.226 0 0 0 .008-.058 4.061 4.061 0 0 0 .02-.218 3.133 3.133 0 0 0 .008-.204v-5.478h.723Z" fill="#231f20" fill-rule="evenodd" data-name="Path 769"/><path d="M194.354 157.832v-8.22h.724v7.603h4.057v.617h-4.781Z" fill="#231f20" fill-rule="evenodd" data-name="Path 768"/><path d="M241.655 153.29v.865a9.324 9.324 0 0 1-.046.946 4.584 4.584 0 0 1-.17.87 3.252 3.252 0 0 1-.337.75 2.164 2.164 0 0 1-.544.59 2.282 2.282 0 0 1-.441.254 2.949 2.949 0 0 1-.357.13 3.192 3.192 0 0 1-.474.1c-.193.025-.4.038-.622.038-.374 0-.704-.036-.99-.11a2.729 2.729 0 0 1-.103-.028 2.878 2.878 0 0 1-.456-.177 2.247 2.247 0 0 1-.342-.207 2.126 2.126 0 0 1-.543-.582 3.075 3.075 0 0 1-.335-.733 4.18 4.18 0 0 1-.158-.728 4.668 4.668 0 0 1-.012-.11 8.459 8.459 0 0 1-.046-.895v-.973a9.267 9.267 0 0 1 .046-.94 4.586 4.586 0 0 1 .119-.688 4.1 4.1 0 0 1 .05-.18 3.211 3.211 0 0 1 .325-.732 3.162 3.162 0 0 1 .013-.022 2.2 2.2 0 0 1 .544-.592 2.257 2.257 0 0 1 .44-.256 2.843 2.843 0 0 1 .358-.13 3.14 3.14 0 0 1 .491-.101c.16-.021.332-.033.514-.036a5.648 5.648 0 0 1 .09 0 4.846 4.846 0 0 1 .518.025c.209.023.4.06.576.112a2.77 2.77 0 0 1 .456.178 2.288 2.288 0 0 1 .342.208 2.165 2.165 0 0 1 .543.592c.14.23.251.48.335.753a4.4 4.4 0 0 1 .15.697 5.268 5.268 0 0 1 .02.171 9.267 9.267 0 0 1 .046.941Zm-.724.984v-1.006a8.69 8.69 0 0 0-.021-.617 6.14 6.14 0 0 0-.064-.56 4.796 4.796 0 0 0-.032-.17 3.091 3.091 0 0 0-.125-.448 2.196 2.196 0 0 0-.216-.438 1.85 1.85 0 0 0-.042-.063 1.627 1.627 0 0 0-.702-.56 2.139 2.139 0 0 0-.416-.125 3.095 3.095 0 0 0-.454-.054 4.006 4.006 0 0 0-.195-.005 3.58 3.58 0 0 0-.453.027c-.158.02-.304.052-.437.095a1.852 1.852 0 0 0-.187.071 1.62 1.62 0 0 0-.694.573 2.124 2.124 0 0 0-.233.451 2.99 2.99 0 0 0-.13.45 3.629 3.629 0 0 0-.01.051 5.583 5.583 0 0 0-.077.534 8.243 8.243 0 0 0-.035.788v1.027c0 .428.034.812.1 1.15a4.276 4.276 0 0 0 .02.097c.078.363.208.668.386.917.179.25.411.438.698.568a2.046 2.046 0 0 0 .446.14c.184.037.386.055.606.055.349 0 .652-.043.91-.13a1.848 1.848 0 0 0 .155-.062 1.7 1.7 0 0 0 .702-.566 2.136 2.136 0 0 0 .25-.469 2.94 2.94 0 0 0 .133-.456 5.194 5.194 0 0 0 .086-.572c.018-.19.028-.39.03-.601a8.515 8.515 0 0 0 0-.092Z" fill="#231f20" fill-rule="evenodd" data-name="Path 767"/><path d="M187.558 153.29v.865a9.616 9.616 0 0 1-.046.946 4.584 4.584 0 0 1-.17.87 3.174 3.174 0 0 1-.34.75 2.134 2.134 0 0 1-.543.59 2.26 2.26 0 0 1-.44.254 2.944 2.944 0 0 1-.357.13 3.192 3.192 0 0 1-.474.1c-.192.025-.4.038-.622.038-.374 0-.703-.036-.99-.11a2.764 2.764 0 0 1-.102-.028 2.863 2.863 0 0 1-.445-.17 2.232 2.232 0 0 1-.352-.214 2.1 2.1 0 0 1-.544-.582 3.075 3.075 0 0 1-.336-.733 4.17 4.17 0 0 1-.162-.755 4.997 4.997 0 0 1-.009-.083 8.727 8.727 0 0 1-.046-.895v-.973c0-.32.016-.635.046-.94a4.653 4.653 0 0 1 .12-.688 3.91 3.91 0 0 1 .05-.18c.084-.274.196-.524.34-.754a2.165 2.165 0 0 1 .543-.592 2.255 2.255 0 0 1 .44-.256 2.824 2.824 0 0 1 .358-.13 3.101 3.101 0 0 1 .473-.1c.192-.025.4-.038.621-.038.42 0 .783.045 1.093.138a2.759 2.759 0 0 1 .457.178 2.259 2.259 0 0 1 .34.208c.224.166.404.364.544.592a3.202 3.202 0 0 1 .333.74 3.477 3.477 0 0 1 .004.013 4.4 4.4 0 0 1 .15.697 5.268 5.268 0 0 1 .02.171c.03.306.046.62.046.941Zm-.726.984v-1.006a8.819 8.819 0 0 0-.02-.617 6.11 6.11 0 0 0-.064-.56 4.719 4.719 0 0 0-.031-.17 3.03 3.03 0 0 0-.128-.456 2.137 2.137 0 0 0-.224-.445 1.814 1.814 0 0 0-.033-.048 1.615 1.615 0 0 0-.701-.56 2.125 2.125 0 0 0-.416-.125 3.325 3.325 0 0 0-.649-.059c-.34 0-.637.04-.89.122a1.848 1.848 0 0 0-.187.071c-.288.127-.52.318-.694.573a2.13 2.13 0 0 0-.233.451c-.054.14-.098.294-.132.459a3.536 3.536 0 0 0-.008.042 5.583 5.583 0 0 0-.076.534 8.243 8.243 0 0 0-.035.788v1.027c0 .428.033.812.099 1.15a4.276 4.276 0 0 0 .02.097c.079.363.209.668.386.917.18.25.412.438.699.568a2.046 2.046 0 0 0 .445.14c.184.037.386.055.606.055a3.467 3.467 0 0 0 .464-.03 2.37 2.37 0 0 0 .438-.099 1.836 1.836 0 0 0 .163-.063c.289-.129.523-.317.701-.566a2.102 2.102 0 0 0 .254-.476 2.898 2.898 0 0 0 .13-.449 5.141 5.141 0 0 0 .086-.572c.017-.19.027-.39.03-.601a8.716 8.716 0 0 0 0-.092Z" fill="#231f20" fill-rule="evenodd" data-name="Path 766"/><path d="m261.03 155.451.69-.01a2.07 2.07 0 0 0 .01.202 2.591 2.591 0 0 0 .023.171 1.845 1.845 0 0 0 .047.2 2.066 2.066 0 0 0 .07.201 1.577 1.577 0 0 0 .188.329 1.835 1.835 0 0 0 .046.058 1.37 1.37 0 0 0 .247.24 1.783 1.783 0 0 0 .128.087c.152.094.335.17.551.226a2.387 2.387 0 0 0 .328.063c.132.016.276.024.43.024.279 0 .524-.025.736-.077a1.945 1.945 0 0 0 .143-.04 1.939 1.939 0 0 0 .292-.12c.114-.059.214-.127.3-.205a1.223 1.223 0 0 0 .33-.49 1.677 1.677 0 0 0 .096-.437 2.084 2.084 0 0 0 .008-.187 2.24 2.24 0 0 0-.019-.3 1.623 1.623 0 0 0-.069-.3 1.296 1.296 0 0 0-.27-.458 1.533 1.533 0 0 0-.272-.233 1.871 1.871 0 0 0-.173-.104 2.488 2.488 0 0 0-.29-.129 3.49 3.49 0 0 0-.336-.106l-1.332-.365a4.896 4.896 0 0 1-.406-.132 3.396 3.396 0 0 1-.355-.156 2.005 2.005 0 0 1-.358-.231 1.74 1.74 0 0 1-.188-.178 1.615 1.615 0 0 1-.307-.51 1.807 1.807 0 0 1-.024-.068 2.04 2.04 0 0 1-.08-.334 2.893 2.893 0 0 1-.031-.364 3.547 3.547 0 0 1-.001-.096 2.516 2.516 0 0 1 .065-.58 2.235 2.235 0 0 1 .06-.21 1.54 1.54 0 0 1 .416-.64c.18-.17.418-.306.712-.407a2.88 2.88 0 0 1 .057-.019 2.875 2.875 0 0 1 .43-.1c.227-.036.483-.054.766-.054.473 0 .875.056 1.207.17.33.113.6.273.81.48.208.207.364.457.466.75a3.372 3.372 0 0 1 .147.587 4.262 4.262 0 0 1 .044.39l-.688.004a3.973 3.973 0 0 0-.072-.487 3.485 3.485 0 0 0-.051-.208 1.404 1.404 0 0 0-.312-.566 1.31 1.31 0 0 0-.304-.247 1.8 1.8 0 0 0-.286-.137 1.882 1.882 0 0 0-.308-.086 3.407 3.407 0 0 0-.648-.055c-.255 0-.478.018-.668.053a1.891 1.891 0 0 0-.272.07 1.87 1.87 0 0 0-.244.103 1.23 1.23 0 0 0-.222.145.933.933 0 0 0-.082.076 1.06 1.06 0 0 0-.197.281.974.974 0 0 0-.062.17 2.028 2.028 0 0 0-.065.507c0 .205.025.388.073.545a1.335 1.335 0 0 0 .005.016 1.23 1.23 0 0 0 .228.412 1.19 1.19 0 0 0 .012.014c.109.122.244.225.405.311a2.458 2.458 0 0 0 .281.125 3.303 3.303 0 0 0 .286.091l1.463.408a4.088 4.088 0 0 1 .455.156 3.353 3.353 0 0 1 .278.13 2.002 2.002 0 0 1 .418.286 1.814 1.814 0 0 1 .136.135 1.732 1.732 0 0 1 .3.478 2.042 2.042 0 0 1 .05.128c.082.236.123.511.123.828.001.246-.026.472-.082.678a1.778 1.778 0 0 1-.577.917 2.109 2.109 0 0 1-.702.384c-.354.119-.776.178-1.266.178a4.398 4.398 0 0 1-.581-.036 3.136 3.136 0 0 1-.576-.13 2.65 2.65 0 0 1-.035-.012 2.7 2.7 0 0 1-.495-.227 2.15 2.15 0 0 1-.36-.266 2.007 2.007 0 0 1-.518-.752 2.582 2.582 0 0 1-.172-.958Z" fill="#231f20" fill-rule="evenodd" data-name="Path 765"/><path d="m169.94 155.451.689-.01a1.994 1.994 0 0 0 .01.202 2.75 2.75 0 0 0 .024.171 1.71 1.71 0 0 0 .047.2 2.103 2.103 0 0 0 .07.201 1.524 1.524 0 0 0 .18.317 1.877 1.877 0 0 0 .054.07 1.37 1.37 0 0 0 .248.24 1.783 1.783 0 0 0 .128.087 1.655 1.655 0 0 0 .25.127c.08.033.167.062.26.088a2.874 2.874 0 0 0 .04.011 2.387 2.387 0 0 0 .328.063c.133.016.276.024.43.024a3.794 3.794 0 0 0 .387-.018c.182-.02.346-.052.492-.1a1.93 1.93 0 0 0 .292-.12c.107-.054.2-.118.282-.19a1.171 1.171 0 0 0 .016-.014 1.208 1.208 0 0 0 .332-.49 1.677 1.677 0 0 0 .096-.437 2.084 2.084 0 0 0 .009-.187c0-.227-.03-.427-.09-.6a1.28 1.28 0 0 0-.268-.458 1.577 1.577 0 0 0-.289-.243 1.902 1.902 0 0 0-.157-.094 2.914 2.914 0 0 0-.606-.229 4.031 4.031 0 0 0-.022-.006l-1.33-.365a4.856 4.856 0 0 1-.396-.128 3.417 3.417 0 0 1-.365-.16 2.005 2.005 0 0 1-.358-.231 1.74 1.74 0 0 1-.188-.178 1.63 1.63 0 0 1-.306-.506 1.843 1.843 0 0 1-.026-.072 1.967 1.967 0 0 1-.08-.338 2.893 2.893 0 0 1-.03-.335 3.667 3.667 0 0 1-.001-.12 2.536 2.536 0 0 1 .065-.58 2.273 2.273 0 0 1 .06-.212 1.542 1.542 0 0 1 .416-.64 1.668 1.668 0 0 1 .348-.249c.11-.06.23-.112.364-.157a2.866 2.866 0 0 1 .057-.019 2.875 2.875 0 0 1 .43-.1c.227-.036.483-.054.767-.054.472 0 .875.056 1.206.17.33.113.6.273.81.48.208.207.363.457.466.75a3.372 3.372 0 0 1 .147.587 4.262 4.262 0 0 1 .044.39l-.69.004a3.688 3.688 0 0 0-.075-.508 3.314 3.314 0 0 0-.047-.187 1.402 1.402 0 0 0-.31-.566 1.332 1.332 0 0 0-.314-.252 1.802 1.802 0 0 0-.276-.132c-.248-.094-.567-.14-.956-.14a3.7 3.7 0 0 0-.67.052 1.892 1.892 0 0 0-.27.07 1.87 1.87 0 0 0-.244.103 1.23 1.23 0 0 0-.223.145.933.933 0 0 0-.082.076 1.06 1.06 0 0 0-.197.281.974.974 0 0 0-.062.17 2.028 2.028 0 0 0-.065.507c0 .205.025.388.073.545a1.335 1.335 0 0 0 .005.016 1.183 1.183 0 0 0 .24.426c.109.122.245.225.406.311a2.458 2.458 0 0 0 .28.125 3.303 3.303 0 0 0 .286.091l1.462.408a4.097 4.097 0 0 1 .433.146 3.364 3.364 0 0 1 .301.14 2.002 2.002 0 0 1 .418.286 1.814 1.814 0 0 1 .136.135 1.738 1.738 0 0 1 .3.478 2.12 2.12 0 0 1 .05.128c.082.236.123.511.123.828a3.206 3.206 0 0 1 0 .014c0 .24-.027.46-.082.662a1.782 1.782 0 0 1-.576.92 2.108 2.108 0 0 1-.7.382c-.356.12-.779.18-1.27.18a4.398 4.398 0 0 1-.58-.037 3.101 3.101 0 0 1-.61-.142 2.706 2.706 0 0 1-.497-.227 2.17 2.17 0 0 1-.36-.266 2.015 2.015 0 0 1-.517-.752 2.485 2.485 0 0 1-.163-.718 2.973 2.973 0 0 1-.01-.24Z" fill="#231f20" fill-rule="evenodd" data-name="Path 764"/><g data-name="Group 693"><path d="M150.014 149.612h2.785c.452 0 .845.063 1.177.19a2.229 2.229 0 0 1 .185.08c.368.18.664.424.89.73a2.836 2.836 0 0 1 .42.844 3.36 3.36 0 0 1 .061.222 5.412 5.412 0 0 1 .142 1.105 6.056 6.056 0 0 1 .002.165v1.542a6.27 6.27 0 0 1-.055.825 3.833 3.833 0 0 1-.185.78 3.169 3.169 0 0 1-.347.688c-.143.213-.32.397-.532.551a2.346 2.346 0 0 1-.468.262 2.868 2.868 0 0 1-.284.103 2.866 2.866 0 0 1-.48.102c-.162.02-.334.031-.515.031h-2.796v-8.22Zm.724 7.603h2.04a2.67 2.67 0 0 0 .674-.084 2.42 2.42 0 0 0 .177-.053c.266-.093.494-.242.69-.45.186-.197.334-.455.447-.774a3.257 3.257 0 0 0 .015-.045c.09-.269.145-.59.163-.96a5.935 5.935 0 0 0 .007-.294v-1.617a5.3 5.3 0 0 0-.03-.58 3.785 3.785 0 0 0-.108-.58 2.741 2.741 0 0 0-.17-.463 2.08 2.08 0 0 0-.239-.389 1.72 1.72 0 0 0-.677-.525 2.086 2.086 0 0 0-.528-.148 2.808 2.808 0 0 0-.417-.03h-2.044v6.992Z" fill="#231f20" fill-rule="evenodd" data-name="Path 763"/><path d="M137.648 150.547h-.091l.021.357.005 6.928h-.708v-8.22h.957l4.007 7.252h.093l-.017-.276-.01-6.976h.724v8.22h-.963l-4.018-7.285Z" fill="#231f20" fill-rule="evenodd" data-name="Path 762"/><path d="m123.92 157.832 2.802-8.22h1.097l2.807 8.22h-.74l-.84-2.504h-3.558l-.833 2.504h-.735Zm1.774-3.12h3.148l-1.51-4.505h-.13l-1.508 4.505Z" fill="#231f20" fill-rule="evenodd" data-name="Path 761"/><path d="m117.698 155.615.292 1.26c.036.168.09.338.16.507a3.017 3.017 0 0 0 .002.004 3.219 3.219 0 0 0 .113.24 2.388 2.388 0 0 0 .12.206h-.758a1.462 1.462 0 0 1-.094-.158 1.962 1.962 0 0 1-.082-.182 2.342 2.342 0 0 1-.025-.068 3.943 3.943 0 0 1-.15-.51l-.307-1.272a1.624 1.624 0 0 0-.13-.354 1.4 1.4 0 0 0-.098-.163 1.648 1.648 0 0 0-.366-.379 1.727 1.727 0 0 0-.454-.24 1.836 1.836 0 0 0-.428-.098 1.736 1.736 0 0 0-.06-.005H113.5v3.43h-.725v-8.22h2.878a4.715 4.715 0 0 1 .67.044c.488.07.878.223 1.171.46.364.295.57.744.615 1.345a3.51 3.51 0 0 1 .01.264v.454a2.558 2.558 0 0 1-.064.59 1.811 1.811 0 0 1-.342.72 1.882 1.882 0 0 1-.65.52 2.673 2.673 0 0 1-.529.193 2.662 2.662 0 0 1 .255.115 2.044 2.044 0 0 1 .184.107 1.534 1.534 0 0 1 .33.292c.092.111.172.241.234.386.064.147.117.317.16.512Zm-2.054-5.392H113.5v3.564h2.001a4.095 4.095 0 0 0 .377-.016c.123-.012.237-.029.342-.052a2.038 2.038 0 0 0 .18-.048 1.801 1.801 0 0 0 .29-.12 1.294 1.294 0 0 0 .293-.21 1.198 1.198 0 0 0 .317-.514 2.068 2.068 0 0 0 .079-.383 2.595 2.595 0 0 0 .016-.29v-.395c0-.227-.028-.435-.082-.622a1.117 1.117 0 0 0-.28-.484 1.146 1.146 0 0 0-.261-.195 1.618 1.618 0 0 0-.26-.115 1.976 1.976 0 0 0-.019-.007 1.945 1.945 0 0 0-.29-.07 2.98 2.98 0 0 0-.33-.037 4.103 4.103 0 0 0-.23-.006Z" fill="#231f20" fill-rule="evenodd" data-name="Path 760"/><path d="M103.37 157.832h-2.824v-8.22h2.785a4.122 4.122 0 0 1 .636.047 3.509 3.509 0 0 1 .235.045 2.285 2.285 0 0 1 .465.155 1.965 1.965 0 0 1 .26.145 1.526 1.526 0 0 1 .498.543c.122.224.183.496.183.817v.53a2.056 2.056 0 0 1-.08.58c-.054.182-.136.35-.247.5a1.393 1.393 0 0 1-.417.372 1.347 1.347 0 0 1-.366.147 1.717 1.717 0 0 1-.22.04 2.128 2.128 0 0 1 .397.07 1.768 1.768 0 0 1 .28.105 1.69 1.69 0 0 1 .395.263 1.496 1.496 0 0 1 .109.108c.14.151.245.325.317.522a1.783 1.783 0 0 1 .106.525 2.073 2.073 0 0 1 .003.11v.422a4.15 4.15 0 0 1-.022.439c-.016.149-.04.288-.074.416a2.197 2.197 0 0 1-.038.13 1.586 1.586 0 0 1-.222.446 1.402 1.402 0 0 1-.207.23 1.847 1.847 0 0 1-.774.388 2.667 2.667 0 0 1-.003.001c-.244.064-.53.103-.86.117a7.052 7.052 0 0 1-.316.007Zm-.012-3.975h-2.097v3.358h2.088a6.133 6.133 0 0 0 .382-.011 4.595 4.595 0 0 0 .35-.035 1.515 1.515 0 0 0 .308-.073 1.223 1.223 0 0 0 .264-.132.96.96 0 0 0 .286-.299 1.28 1.28 0 0 0 .088-.17c.088-.209.132-.489.132-.843v-.475a1.491 1.491 0 0 0-.027-.291 1.127 1.127 0 0 0-.1-.293 1.134 1.134 0 0 0-.358-.412 1.497 1.497 0 0 0-.295-.156 2 2 0 0 0-.274-.087 2.86 2.86 0 0 0-.401-.065 3.7 3.7 0 0 0-.346-.016Zm-.113-3.677h-1.984v3.082h2.06a2.895 2.895 0 0 0 .433-.03c.325-.05.578-.159.757-.329a1.184 1.184 0 0 0 .344-.637 1.76 1.76 0 0 0 .035-.356v-.476c0-.184-.03-.353-.087-.508a.956.956 0 0 0-.282-.398 1.142 1.142 0 0 0-.224-.146 1.642 1.642 0 0 0-.235-.096 2.057 2.057 0 0 0-.048-.015 2.08 2.08 0 0 0-.29-.06 3.087 3.087 0 0 0-.288-.027 4.137 4.137 0 0 0-.19-.004Z" fill="#231f20" fill-rule="evenodd" data-name="Path 759"/></g></g><path d="M370.075 137.2h-3.16l2.482 2.482h-268.85v2.482h268.85l-2.483 2.483h3.161l3.724-3.724-3.724-3.723Z" fill="#231f20" fill-rule="evenodd" data-name="Path 758"/><g data-name="Group 692"><g data-name="Group 691"><path d="m175.02 107.951 10.858-6.268-10.857-6.269v12.537Z" fill="#231f20" fill-rule="evenodd" data-name="Path 757"/><path d="M370.129 118.584v-3.569a40.155 40.155 0 0 0-.169-1.576 22.417 22.417 0 0 0-.387-2.228c-.217-.93-.52-1.722-.908-2.376a5.877 5.877 0 0 0-.102-.166 6.17 6.17 0 0 0-1.7-1.75 13.242 13.242 0 0 0-1-.625 19.264 19.264 0 0 0-1.157-.603 24.323 24.323 0 0 0-.435-.204 17.712 17.712 0 0 0 3.047-1.694 13.424 13.424 0 0 0 2.66-2.43 9.102 9.102 0 0 0 2.013-4.783 12.074 12.074 0 0 0 .09-1.496v-3.232c0-2.46-.307-4.613-.922-6.458a14.055 14.055 0 0 0-.24-.663 11.643 11.643 0 0 0-3.585-4.933 13.666 13.666 0 0 0-3.088-1.85 18.924 18.924 0 0 0-3.056-1.028 28.948 28.948 0 0 0-3.523-.633 42.08 42.08 0 0 0-3.903-.274 53.315 53.315 0 0 0-1.411-.019h-23.804v51.276h16.8v-16.295h2.323a12.6 12.6 0 0 1 1.852.135 4.163 4.163 0 0 1 1.666.623 3.593 3.593 0 0 1 .875.805 4.731 4.731 0 0 1 .406.61 4.689 4.689 0 0 1 .345.788c.093.274.173.576.24.906a11.085 11.085 0 0 1 .138.847l.303 3.972a15.2 15.2 0 0 0 .391 1.74 18.59 18.59 0 0 0 .265.853 32.674 32.674 0 0 0 .522 1.44 25.904 25.904 0 0 0 .422 1.018c.324.74.623 1.352.891 1.835.264.472.42.713.468.723a.015.015 0 0 0 .003 0h17.34c-.257-.342-.57-.807-.94-1.395a40.583 40.583 0 0 1-.053-.086 19.12 19.12 0 0 1-.688-1.196 24.525 24.525 0 0 1-.457-.908 19.096 19.096 0 0 1-.87-2.149 20.737 20.737 0 0 1-.106-.326 13.23 13.23 0 0 1-.35-1.313 12.538 12.538 0 0 1-.206-1.313Zm-18.585-20.066h-6.16V88.384h6.193a5.495 5.495 0 0 1 .747.048c.258.035.494.09.709.166a2.694 2.694 0 0 1 .363.156 2.793 2.793 0 0 1 1.11 1.027 4.172 4.172 0 0 1 .43.956 5.295 5.295 0 0 1 .143.576 9.489 9.489 0 0 1 .16 1.43 11.02 11.02 0 0 1 .008.422v1.043a4.565 4.565 0 0 1-.219 1.425 4.23 4.23 0 0 1-.1.276 4.728 4.728 0 0 1-.824 1.363 3.86 3.86 0 0 1-1.18.91 3.119 3.119 0 0 1-1.028.315 2.94 2.94 0 0 1-.352.021Z" fill="#231f20" fill-rule="evenodd" data-name="Path 756"/><path d="M280.21 97.541v8.182a26.796 26.796 0 0 0 .557 5.471 21.425 21.425 0 0 0 1.732 5.084 18.59 18.59 0 0 0 3.015 4.41 17.846 17.846 0 0 0 3.675 3.046 20.454 20.454 0 0 0 .702.422 20.657 20.657 0 0 0 3.384 1.548 26.05 26.05 0 0 0 2.473.741 27.209 27.209 0 0 0 3.922.662 35.992 35.992 0 0 0 3.502.163 35.266 35.266 0 0 0 4.684-.294c2.139-.287 4.067-.784 5.787-1.49a22.106 22.106 0 0 0 4.113-2.196 17.703 17.703 0 0 0 2.99-2.568 18.5 18.5 0 0 0 4.041-6.868c.853-2.593 1.28-5.303 1.28-8.13v-8.216a25.497 25.497 0 0 0-1.28-8.047 18.675 18.675 0 0 0-4.04-6.868 18.406 18.406 0 0 0-4.425-3.487 23.391 23.391 0 0 0-2.68-1.31 22.124 22.124 0 0 0-4.47-1.293 31.717 31.717 0 0 0-4.626-.484 39.989 39.989 0 0 0-1.407-.025 35.29 35.29 0 0 0-4.71.298 24.733 24.733 0 0 0-4.478 1.008 19.867 19.867 0 0 0-1.334.495 22.215 22.215 0 0 0-4.072 2.176 17.72 17.72 0 0 0-3.049 2.622 18.433 18.433 0 0 0-4.022 6.885 25.918 25.918 0 0 0-1.264 8.063Zm16.901 9.226v-9.865c0-.965.08-1.947.237-2.946a8.848 8.848 0 0 1 .555-2.014 7.93 7.93 0 0 1 .336-.713 5.382 5.382 0 0 1 1.853-2.004 4.523 4.523 0 0 1 1.367-.58 6.584 6.584 0 0 1 1.252-.182 8.585 8.585 0 0 1 .46-.012 5.442 5.442 0 0 1 1.704.261 4.957 4.957 0 0 1 .806.345 5.657 5.657 0 0 1 1.894 1.666 6.567 6.567 0 0 1 .025.034 7.238 7.238 0 0 1 .79 1.423 9.579 9.579 0 0 1 .422 1.237 11.96 11.96 0 0 1 .34 1.873 15.558 15.558 0 0 1 .08 1.612v9.831a13.069 13.069 0 0 1-.182 2.22 11.408 11.408 0 0 1-.204.945 8.97 8.97 0 0 1-.545 1.524 7.203 7.203 0 0 1-.6 1.051 5.616 5.616 0 0 1-1.902 1.734c-.765.427-1.64.64-2.627.64-1.01 0-1.892-.213-2.643-.64a5.659 5.659 0 0 1-1.885-1.734 7.584 7.584 0 0 1-.863-1.669 9.252 9.252 0 0 1-.282-.89 11.722 11.722 0 0 1-.36-2.268 13.911 13.911 0 0 1-.028-.879Z" fill="#231f20" fill-rule="evenodd" data-name="Path 755"/><path d="M237.053 88.451h12.524v38.82h16.834V88.45h12.558V75.994h-41.916v12.457Z" fill="#231f20" fill-rule="evenodd" data-name="Path 754"/><path d="M219.82 94.58h15.992c0-2.29-.484-4.546-1.449-6.769a19.042 19.042 0 0 0-4.09-5.959 19.852 19.852 0 0 0-5.015-3.593 23.439 23.439 0 0 0-1.382-.649c-2.503-1.077-5.292-1.616-8.366-1.616a35.31 35.31 0 0 0-3.906.206 26.562 26.562 0 0 0-3.501.62 25.26 25.26 0 0 0-3.478 1.13 20.405 20.405 0 0 0-2.38 1.158 18.372 18.372 0 0 0-3.495 2.569 16.527 16.527 0 0 0-.9.916 19.082 19.082 0 0 0-3.013 4.41 21.097 21.097 0 0 0-1.733 5.084 27.117 27.117 0 0 0-.555 5.488v8.08a26.873 26.873 0 0 0 .555 5.472 21.857 21.857 0 0 0 1.716 5.083 18.571 18.571 0 0 0 2.997 4.428 17.696 17.696 0 0 0 3.752 3.11 20.212 20.212 0 0 0 .624.374 21.21 21.21 0 0 0 3.474 1.588 26.638 26.638 0 0 0 2.368.72 26.387 26.387 0 0 0 3.85.668 35.144 35.144 0 0 0 3.557.172 24.627 24.627 0 0 0 5.647-.629 21.646 21.646 0 0 0 2.416-.717 20.043 20.043 0 0 0 5.125-2.714 18.399 18.399 0 0 0 1.34-1.09 17.517 17.517 0 0 0 4.293-5.859 17.451 17.451 0 0 0 1.524-6.44 20.475 20.475 0 0 0 .025-1h-15.993a8.468 8.468 0 0 1-.1 1.338 6.43 6.43 0 0 1-.304 1.186c-.27.741-.618 1.37-1.044 1.886a4.971 4.971 0 0 1-.889.847 4.3 4.3 0 0 1-.558.348 4.041 4.041 0 0 1-.694.288 2.933 2.933 0 0 1-.855.133 6.031 6.031 0 0 1-1.33-.14 4.619 4.619 0 0 1-1.297-.5 5.418 5.418 0 0 1-1.834-1.734 7.687 7.687 0 0 1-.794-1.585 9.6 9.6 0 0 1-.3-.974 12.651 12.651 0 0 1-.37-3.114V96.733a19.026 19.026 0 0 1 .166-2.474 21.429 21.429 0 0 1 .052-.37 8.601 8.601 0 0 1 .565-2.055 7.775 7.775 0 0 1 .293-.622 5.379 5.379 0 0 1 1.802-1.987 4.29 4.29 0 0 1 1.295-.568c.373-.099.78-.162 1.22-.19a8.459 8.459 0 0 1 .532-.016c.284 0 .645.096 1.085.29a6.53 6.53 0 0 1 .144.064c.504.235.994.6 1.464 1.094.471.494.881 1.128 1.229 1.902a5.653 5.653 0 0 1 .4 1.319c.071.394.112.816.12 1.265a9.773 9.773 0 0 1 .002.194Z" fill="#231f20" fill-rule="evenodd" data-name="Path 753"/><path d="m125.36 113.063-7.576-37.069h-17.237l12.22 51.277h25.118l12.322-51.277h-17.204l-7.643 37.069Z" fill="#231f20" fill-rule="evenodd" data-name="Path 752"/></g><path d="M169.59 114.914h21.717v12.356h-38.618V75.994h38.618v12.457H169.59v26.463Z" fill="#ffdf24" fill-rule="evenodd" data-name="Path 751"/></g></g></svg>