<?xml version="1.0" encoding="UTF-8"?><svg id="Layer_1" xmlns="http://www.w3.org/2000/svg" viewBox="0 0 200 200"><defs><style>.cls-1{fill:#fff;}.cls-2{fill:#ffdf00;}.cls-3{fill:#1d1d1b;}</style></defs><rect class="cls-1" width="200" height="200"/><g><g><path class="cls-2" d="M60.92,98.84h12.56v7.14h-22.33v-29.65h22.33v7.2h-12.56v15.3Z"/><g><polygon class="cls-3" points="35.35 97.77 30.97 76.34 21 76.34 28.07 105.99 42.59 105.99 49.71 76.34 39.77 76.34 35.35 97.77"/><path class="cls-3" d="M84.1,86.69c.08-.56,.25-1.08,.5-1.55,.25-.47,.59-.85,1.04-1.15,.45-.3,1.03-.45,1.76-.45,.18,0,.42,.07,.71,.2,.29,.14,.57,.35,.85,.63,.27,.29,.51,.65,.71,1.1,.2,.45,.3,.98,.3,1.61h9.25c0-1.32-.28-2.63-.84-3.91-.56-1.28-1.35-2.43-2.37-3.45-1.02-1.01-2.25-1.83-3.7-2.45-1.45-.62-3.06-.93-4.84-.93-1.58,0-3.01,.16-4.28,.48-1.27,.32-2.4,.76-3.39,1.32-.99,.56-1.83,1.24-2.54,2.02-.71,.78-1.29,1.63-1.74,2.55-.45,.92-.79,1.9-1,2.94-.21,1.04-.32,2.1-.32,3.17v4.67c0,1.08,.11,2.13,.32,3.16,.21,1.03,.55,2.01,.99,2.94,.45,.93,1.03,1.78,1.73,2.56,.71,.78,1.55,1.45,2.53,2.01,.98,.56,2.11,1.01,3.38,1.33,1.27,.32,2.7,.49,4.28,.49,1.67,0,3.23-.26,4.66-.78,1.43-.52,2.68-1.25,3.74-2.2,1.06-.95,1.88-2.08,2.48-3.39,.6-1.31,.9-2.74,.9-4.3h-9.25c0,.55-.08,1.03-.23,1.46-.16,.43-.36,.79-.6,1.09-.25,.3-.53,.53-.84,.69-.31,.16-.61,.24-.9,.24-.58,0-1.09-.12-1.52-.37-.43-.25-.78-.58-1.06-1-.28-.42-.49-.92-.63-1.48-.14-.56-.21-1.16-.21-1.8v-5.82c0-.53,.04-1.08,.13-1.65Z"/><polygon class="cls-3" points="99.93 83.54 107.17 83.54 107.17 105.99 116.91 105.99 116.91 83.54 124.17 83.54 124.17 76.34 99.93 76.34 99.93 83.54"/><path class="cls-3" d="M148.33,80.15c-1.06-1.16-2.43-2.08-4.11-2.77-1.67-.69-3.7-1.04-6.07-1.04s-4.4,.35-6.08,1.04c-1.68,.69-3.05,1.62-4.12,2.77-1.06,1.16-1.84,2.48-2.33,3.98s-.73,3.05-.73,4.66v4.73c0,1.08,.11,2.13,.32,3.16,.21,1.03,.55,2.01,1,2.94,.45,.93,1.03,1.78,1.74,2.55s1.55,1.44,2.53,2.01c.98,.56,2.11,1.01,3.39,1.32,1.28,.32,2.71,.48,4.29,.48,2.36,0,4.38-.34,6.05-1.03,1.67-.69,3.04-1.61,4.11-2.75,1.06-1.15,1.84-2.47,2.34-3.97,.49-1.5,.74-3.07,.74-4.7v-4.75c0-1.61-.25-3.16-.74-4.65-.49-1.49-1.27-2.82-2.34-3.97Zm-6.66,13.96c0,.65-.07,1.26-.22,1.83-.15,.57-.37,1.07-.66,1.49s-.66,.76-1.1,1c-.44,.25-.95,.37-1.52,.37s-1.09-.12-1.53-.37c-.43-.25-.8-.58-1.09-1-.29-.42-.51-.92-.66-1.48-.15-.56-.22-1.17-.22-1.82v-5.7c0-.56,.05-1.13,.14-1.7,.09-.58,.26-1.1,.52-1.58,.25-.47,.61-.86,1.07-1.16,.46-.3,1.05-.45,1.78-.45,.53,0,1.02,.12,1.45,.35,.43,.23,.8,.56,1.11,.98,.3,.42,.54,.93,.7,1.54,.16,.6,.24,1.28,.24,2.02v5.68Z"/><path class="cls-3" d="M178.43,105.13c-.23-.36-.45-.77-.66-1.22-.21-.45-.4-.92-.56-1.43-.16-.51-.27-1.01-.32-1.52v-2.06c-.08-.88-.18-1.62-.32-2.2-.14-.58-.33-1.07-.58-1.47-.25-.4-.58-.73-.98-1.01-.4-.28-.9-.55-1.5-.83,1.39-.61,2.49-1.4,3.3-2.38,.81-.98,1.22-2.19,1.22-3.63v-1.87c0-1.6-.22-2.97-.67-4.12-.45-1.15-1.14-2.1-2.07-2.85-.93-.75-2.12-1.31-3.55-1.66-1.43-.36-3.14-.54-5.11-.54h-13.76v29.65h9.71v-9.42h1.34c.36,0,.72,.03,1.07,.08s.67,.17,.96,.36c.29,.19,.54,.46,.74,.82s.34,.85,.42,1.47l.18,2.3c.08,.48,.2,.98,.38,1.5,.18,.52,.36,.99,.55,1.42,.19,.43,.36,.78,.52,1.06,.16,.28,.25,.42,.27,.42h10.03c-.16-.21-.35-.49-.57-.86Zm-10.15-18.26c0,.35-.06,.68-.18,.98-.12,.31-.28,.57-.48,.79-.19,.22-.42,.4-.68,.53-.26,.13-.53,.19-.8,.19h-3.56v-5.86h3.58c.43,0,.78,.07,1.05,.21,.27,.14,.49,.34,.64,.59,.16,.25,.27,.55,.33,.89,.06,.34,.1,.69,.1,1.07v.6Z"/><polygon class="cls-3" points="64.06 94.82 70.34 91.19 64.06 87.57 64.06 94.82"/></g></g><polygon class="cls-3" points="176.85 111.73 175.02 111.73 176.46 113.17 21 113.17 21 114.6 176.46 114.6 175.02 116.04 176.85 116.04 179 113.88 176.85 111.73"/><g><g><path class="cls-3" d="M24.09,122.4c0,.22-.03,.41-.08,.57-.05,.16-.13,.29-.25,.39-.11,.1-.26,.18-.45,.23-.18,.05-.41,.07-.68,.07h-1.63v-4.75h1.61c.18,0,.34,.02,.5,.05,.16,.04,.3,.09,.42,.17,.12,.08,.22,.18,.29,.31s.11,.29,.11,.47v.31c0,.12-.02,.23-.05,.33-.03,.11-.08,.2-.14,.29-.06,.09-.14,.16-.24,.22-.1,.06-.21,.09-.34,.11,.15,.01,.28,.05,.39,.1,.11,.06,.21,.13,.29,.21,.08,.09,.14,.19,.18,.3,.04,.11,.06,.24,.06,.37v.24Zm-.58-2.44c0-.11-.02-.2-.05-.29-.03-.09-.09-.17-.16-.23-.07-.06-.17-.11-.29-.15-.12-.04-.27-.05-.44-.05h-1.15v1.78h1.19c.31,0,.54-.07,.69-.21,.15-.14,.22-.33,.22-.57v-.28Zm.16,2.16c0-.13-.02-.24-.07-.34s-.12-.18-.21-.24c-.09-.06-.2-.11-.33-.14-.13-.03-.27-.05-.43-.05h-1.21v1.94h1.21c.15,0,.3,0,.42-.03,.13-.02,.24-.06,.33-.12,.09-.06,.16-.15,.22-.27,.05-.12,.08-.28,.08-.49v-.28Z"/><path class="cls-3" d="M31.16,120.39c0,.31-.08,.56-.23,.76-.16,.2-.38,.34-.68,.41,.1,.04,.18,.08,.25,.13,.07,.05,.14,.1,.19,.17,.05,.06,.1,.14,.14,.22,.04,.08,.07,.18,.09,.3l.17,.73c.02,.1,.05,.2,.09,.3,.04,.1,.09,.19,.13,.26h-.44c-.04-.06-.08-.14-.12-.24-.03-.09-.06-.19-.09-.3l-.18-.73c-.03-.11-.07-.21-.13-.3-.06-.09-.13-.16-.21-.22-.08-.06-.17-.11-.26-.14-.1-.03-.19-.05-.28-.06h-1.12v1.98h-.42v-4.75h1.66c.47,0,.82,.1,1.06,.29,.24,.2,.36,.51,.36,.93v.26Zm-.42-.24c0-.13-.02-.25-.05-.36-.03-.11-.09-.2-.16-.28-.08-.08-.18-.14-.31-.18-.13-.04-.29-.07-.49-.07h-1.24v2.06h1.16c.21,0,.38-.02,.52-.07,.14-.04,.25-.11,.34-.19,.09-.08,.15-.18,.18-.3,.04-.12,.05-.25,.05-.39v-.23Z"/><path class="cls-3" d="M34.51,123.66l1.62-4.75h.63l1.62,4.75h-.43l-.48-1.45h-2.06l-.48,1.45h-.43Zm1.03-1.8h1.82l-.87-2.6h-.07l-.87,2.6Z"/><path class="cls-3" d="M42.45,119.45h-.05v.21s.02,4.01,.02,4.01h-.41v-4.75h.55l2.32,4.19h.05v-.16s-.02-4.03-.02-4.03h.42v4.75h-.56l-2.32-4.21Z"/><path class="cls-3" d="M49.6,118.91h1.61c.31,0,.58,.05,.79,.16,.21,.1,.38,.25,.51,.42,.13,.18,.22,.38,.28,.62,.06,.23,.08,.48,.08,.73v.89c0,.16-.01,.32-.03,.48-.02,.16-.06,.31-.11,.45-.05,.14-.12,.28-.2,.4-.08,.12-.19,.23-.31,.32-.12,.09-.27,.16-.43,.21-.17,.05-.36,.08-.58,.08h-1.62v-4.75Zm.42,4.4h1.18c.18,0,.34-.03,.49-.08,.15-.05,.29-.14,.4-.26,.11-.12,.2-.28,.27-.47s.1-.44,.1-.73v-.94c0-.25-.03-.48-.08-.67-.05-.2-.13-.36-.24-.49-.1-.13-.24-.23-.39-.3-.16-.07-.34-.1-.55-.1h-1.18v4.04Z"/></g><path class="cls-3" d="M64.23,122.41c0,.4-.12,.71-.38,.92-.26,.22-.64,.32-1.14,.32-.26,0-.49-.03-.69-.1-.2-.07-.36-.16-.5-.29-.13-.12-.23-.27-.3-.43-.07-.17-.1-.35-.1-.55h.4c0,.06,0,.13,.02,.21,.01,.08,.04,.15,.07,.23,.03,.08,.08,.15,.13,.22,.06,.07,.13,.13,.22,.19s.19,.1,.32,.13c.12,.03,.27,.05,.44,.05,.2,0,.37-.02,.51-.07,.14-.05,.25-.11,.34-.19,.09-.08,.15-.17,.19-.28,.04-.11,.06-.23,.06-.36s-.02-.25-.05-.35c-.03-.1-.09-.19-.16-.26-.07-.08-.16-.14-.26-.19-.1-.05-.22-.1-.36-.14l-.77-.21c-.17-.05-.31-.1-.44-.17-.13-.06-.23-.14-.32-.24-.08-.09-.15-.21-.19-.33-.04-.13-.07-.28-.07-.46,0-.16,.02-.32,.07-.46,.05-.14,.13-.27,.24-.37,.11-.1,.26-.19,.45-.25,.19-.06,.42-.09,.69-.09s.51,.03,.7,.1c.19,.07,.35,.16,.47,.28,.12,.12,.21,.26,.27,.43,.06,.17,.1,.36,.11,.56h-.4c-.01-.14-.04-.27-.07-.4-.04-.12-.1-.23-.18-.33-.08-.09-.2-.17-.34-.22-.14-.05-.33-.08-.55-.08s-.41,.02-.54,.07c-.14,.05-.24,.11-.32,.19-.07,.08-.12,.16-.15,.26-.03,.1-.04,.19-.04,.29,0,.12,.02,.23,.05,.32,.03,.09,.08,.18,.14,.25,.06,.07,.14,.13,.23,.18,.09,.05,.2,.09,.33,.13l.85,.24c.16,.04,.3,.1,.42,.16,.13,.07,.23,.15,.32,.24,.09,.1,.15,.21,.2,.35,.05,.14,.07,.3,.07,.48Z"/><path class="cls-3" d="M116.9,122.41c0,.4-.13,.71-.38,.92-.26,.22-.64,.32-1.14,.32-.26,0-.49-.03-.69-.1-.2-.07-.36-.16-.5-.29-.13-.12-.23-.27-.3-.43-.07-.17-.1-.35-.1-.55h.4c0,.06,0,.13,.02,.21,.01,.08,.04,.15,.07,.23,.03,.08,.08,.15,.13,.22,.06,.07,.13,.13,.22,.19s.19,.1,.32,.13c.13,.03,.27,.05,.44,.05,.2,0,.37-.02,.51-.07,.14-.05,.25-.11,.34-.19,.09-.08,.15-.17,.19-.28,.04-.11,.06-.23,.06-.36s-.02-.25-.05-.35c-.03-.1-.09-.19-.16-.26-.07-.08-.16-.14-.26-.19-.1-.05-.22-.1-.36-.14l-.77-.21c-.17-.05-.31-.1-.44-.17-.13-.06-.23-.14-.32-.24-.08-.09-.15-.21-.19-.33-.04-.13-.07-.28-.07-.46,0-.16,.02-.32,.07-.46,.05-.14,.13-.27,.24-.37,.11-.1,.26-.19,.45-.25,.19-.06,.42-.09,.69-.09s.51,.03,.7,.1c.19,.07,.35,.16,.47,.28,.12,.12,.21,.26,.27,.43,.06,.17,.1,.36,.11,.56h-.4c-.01-.14-.04-.27-.07-.4-.04-.12-.1-.23-.18-.33-.08-.09-.2-.17-.34-.22-.14-.05-.33-.08-.55-.08s-.41,.02-.54,.07c-.14,.05-.24,.11-.32,.19-.07,.08-.12,.16-.15,.26-.03,.1-.04,.19-.04,.29,0,.12,.01,.23,.05,.32,.03,.09,.08,.18,.14,.25,.06,.07,.14,.13,.23,.18,.09,.05,.2,.09,.33,.13l.85,.24c.16,.04,.3,.1,.42,.16,.13,.07,.23,.15,.32,.24,.09,.1,.15,.21,.2,.35,.05,.14,.07,.3,.07,.48Z"/><path class="cls-3" d="M67.85,121.03c0-.19,0-.37,.03-.54,.02-.18,.05-.34,.1-.5,.05-.16,.11-.3,.2-.44,.08-.13,.19-.25,.31-.34s.28-.17,.46-.22c.18-.05,.39-.08,.63-.08s.45,.03,.63,.08c.18,.05,.33,.13,.46,.22,.13,.1,.23,.21,.31,.34,.08,.13,.15,.28,.19,.44,.05,.16,.08,.32,.1,.5,.02,.18,.03,.36,.03,.54v.5c0,.19,0,.37-.03,.55-.02,.18-.05,.34-.1,.5-.05,.16-.11,.3-.2,.43-.08,.13-.19,.25-.31,.34-.13,.09-.28,.17-.46,.22-.18,.05-.39,.08-.63,.08s-.45-.03-.63-.08c-.18-.05-.33-.13-.46-.22-.13-.09-.23-.21-.31-.34-.08-.13-.15-.27-.19-.42-.05-.15-.08-.31-.1-.48-.02-.17-.03-.34-.03-.52v-.56Zm1.73,2.27c.24,0,.45-.04,.62-.11,.17-.07,.3-.18,.41-.33,.1-.14,.18-.32,.22-.53,.04-.21,.07-.46,.07-.73v-.58c0-.3-.02-.56-.07-.78-.04-.22-.12-.4-.22-.55-.1-.15-.24-.25-.41-.32-.17-.07-.37-.11-.62-.11s-.46,.04-.62,.11c-.17,.07-.3,.18-.4,.33-.1,.15-.17,.33-.22,.55-.04,.22-.06,.47-.06,.76v.59c0,.27,.02,.51,.07,.72,.05,.21,.12,.39,.22,.53s.24,.25,.4,.33c.17,.08,.37,.11,.61,.11Z"/><path class="cls-3" d="M99.14,121.03c0-.19,0-.37,.03-.54,.02-.18,.05-.34,.1-.5,.05-.16,.11-.3,.2-.44,.08-.13,.19-.25,.31-.34s.28-.17,.46-.22c.18-.05,.39-.08,.63-.08s.45,.03,.63,.08c.18,.05,.33,.13,.46,.22,.13,.1,.23,.21,.31,.34,.08,.13,.15,.28,.19,.44,.05,.16,.08,.32,.1,.5,.02,.18,.03,.36,.03,.54v.5c0,.19,0,.37-.03,.55-.02,.18-.05,.34-.1,.5-.05,.16-.11,.3-.2,.43-.08,.13-.19,.25-.31,.34-.13,.09-.28,.17-.46,.22-.18,.05-.39,.08-.63,.08s-.45-.03-.63-.08c-.18-.05-.33-.13-.46-.22-.13-.09-.23-.21-.31-.34-.08-.13-.15-.27-.19-.42-.05-.15-.08-.31-.1-.48-.02-.17-.03-.34-.03-.52v-.56Zm1.73,2.27c.24,0,.45-.04,.62-.11,.17-.07,.3-.18,.41-.33,.1-.14,.18-.32,.22-.53,.04-.21,.07-.46,.07-.73v-.58c0-.3-.02-.56-.07-.78-.04-.22-.12-.4-.22-.55-.1-.15-.24-.25-.41-.32-.17-.07-.37-.11-.62-.11s-.46,.04-.62,.11c-.17,.07-.3,.18-.4,.33-.1,.15-.17,.33-.22,.55-.04,.22-.06,.47-.06,.76v.59c0,.27,.02,.51,.07,.72,.05,.21,.12,.39,.22,.53s.24,.25,.4,.33c.17,.08,.37,.11,.61,.11Z"/><path class="cls-3" d="M75.24,123.66v-4.75h.42v4.4h2.35v.36h-2.76Z"/><path class="cls-3" d="M84.6,118.91v3.11c0,.11,0,.23-.03,.36-.02,.13-.05,.25-.1,.37s-.11,.24-.2,.35-.19,.21-.31,.29c-.13,.08-.28,.15-.46,.2-.18,.05-.39,.07-.63,.07s-.44-.02-.62-.07c-.18-.05-.33-.11-.46-.2-.13-.08-.23-.18-.32-.29s-.15-.23-.2-.35-.08-.24-.1-.37c-.02-.13-.03-.25-.03-.36v-3.12h.42v3.17c0,.07,0,.15,.02,.24,.01,.09,.04,.18,.07,.27,.03,.09,.08,.18,.15,.27,.06,.09,.14,.16,.24,.23,.1,.07,.21,.12,.35,.16,.14,.04,.3,.06,.48,.06,.2,0,.36-.02,.51-.06,.14-.04,.26-.09,.36-.16,.1-.07,.17-.14,.23-.23,.06-.09,.1-.18,.13-.27,.03-.09,.05-.18,.06-.27s.02-.17,.02-.24v-3.17h.42Z"/><path class="cls-3" d="M89.73,119.26v4.4h-.42v-4.4h-1.5v-.35h3.41v.35h-1.5Z"/><path class="cls-3" d="M94.76,123.66v-4.75h.42v4.75h-.42Z"/><path class="cls-3" d="M106.99,119.45h-.05v.21s.02,4.01,.02,4.01h-.41v-4.75h.55l2.32,4.19h.05v-.16s-.02-4.03-.02-4.03h.42v4.75h-.56l-2.32-4.21Z"/></g></g></svg>