<svg xmlns="http://www.w3.org/2000/svg" width="273.252" height="81.839" viewBox="99.69 75.325 273.252 81.839"><g data-name="Vector Logo - Home - White"><g data-name="Group 11"><path d="M248.412 149.878h-.092l.022.357.005 6.929h-.708v-8.222h.957l4.008 7.253h.092l-.016-.275-.011-6.978h.725v8.222h-.963l-4.019-7.286Z" fill="#fff" fill-rule="evenodd" data-name="Path 24"/><path d="M227.258 157.164v-8.222h.725v8.222h-.725Z" fill="#fff" fill-rule="evenodd" data-name="Path 23"/><path d="M218.563 149.553v7.611h-.725v-7.611h-2.59v-.611h5.9v.611h-2.585Z" fill="#fff" fill-rule="evenodd" data-name="Path 22"/><path d="M209.679 148.943v5.381a4.166 4.166 0 0 1-.018.379 5.25 5.25 0 0 1-.028.241 2.794 2.794 0 0 1-.171.64 2.64 2.64 0 0 1-.31.565 2.92 2.92 0 0 1-.027.036 2.092 2.092 0 0 1-.405.406 2.418 2.418 0 0 1-.139.099 2.337 2.337 0 0 1-.402.213 3.203 3.203 0 0 1-.396.133 3.344 3.344 0 0 1-.474.092 5.02 5.02 0 0 1-.621.036c-.372 0-.703-.035-.992-.106a2.84 2.84 0 0 1-.082-.022 3.274 3.274 0 0 1-.423-.146 2.466 2.466 0 0 1-.37-.194 2.128 2.128 0 0 1-.546-.501 2.62 2.62 0 0 1-.343-.6 2.89 2.89 0 0 1-.18-.638 4.202 4.202 0 0 1-.045-.434 3.596 3.596 0 0 1-.005-.188v-5.392h.725v5.478c0 .125.01.263.034.415a3.612 3.612 0 0 0 0 .007 2.231 2.231 0 0 0 .104.41 2.637 2.637 0 0 0 .02.058c.061.157.144.31.253.46a1.593 1.593 0 0 0 .308.32 1.916 1.916 0 0 0 .106.077 1.837 1.837 0 0 0 .31.171 2.587 2.587 0 0 0 .295.108c.213.063.46.098.741.105a4.134 4.134 0 0 0 .095.001c.339 0 .63-.036.874-.106a2.604 2.604 0 0 0 .312-.112c.105-.046.201-.098.287-.155a1.518 1.518 0 0 0 .017-.012c.168-.115.302-.247.403-.397.101-.15.179-.303.233-.46a2.236 2.236 0 0 0 .1-.41 2.114 2.114 0 0 0 .008-.058c.018-.155.027-.295.027-.422v-5.478h.725Z" fill="#fff" fill-rule="evenodd" data-name="Path 21"/><path d="M193.498 157.163v-8.22h.724v7.603h4.056v.617h-4.78Z" fill="#fff" fill-rule="evenodd" data-name="Path 20"/><path d="M240.799 152.621v.865c0 .324-.015.64-.046.946a4.584 4.584 0 0 1-.17.869 3.193 3.193 0 0 1-.338.751 2.141 2.141 0 0 1-.544.59 2.26 2.26 0 0 1-.44.254 2.954 2.954 0 0 1-.357.13 3.22 3.22 0 0 1-.492.101 4.55 4.55 0 0 1-.514.036 5.54 5.54 0 0 1-.09.001c-.374 0-.704-.037-.992-.11a2.782 2.782 0 0 1-.101-.028 2.864 2.864 0 0 1-.454-.176 2.225 2.225 0 0 1-.343-.208 2.108 2.108 0 0 1-.544-.582 3.092 3.092 0 0 1-.335-.733 4.176 4.176 0 0 1-.162-.756 4.917 4.917 0 0 1-.01-.082 8.59 8.59 0 0 1-.045-.895v-.973c0-.321.015-.635.046-.941a4.635 4.635 0 0 1 .12-.687 3.957 3.957 0 0 1 .051-.181 3.15 3.15 0 0 1 .338-.753 2.18 2.18 0 0 1 .543-.592 2.256 2.256 0 0 1 .44-.256 2.834 2.834 0 0 1 .358-.13 3.111 3.111 0 0 1 .474-.1c.192-.025.399-.038.621-.038a4.865 4.865 0 0 1 .51.025c.172.018.332.046.481.085a2.665 2.665 0 0 1 .102.028 2.772 2.772 0 0 1 .457.177 2.27 2.27 0 0 1 .341.209c.222.166.403.364.543.592a3.237 3.237 0 0 1 .328.727 3.498 3.498 0 0 1 .008.026 4.4 4.4 0 0 1 .15.697 5.268 5.268 0 0 1 .02.171c.03.306.046.62.046.941Zm-.725.984v-1.006a8.712 8.712 0 0 0-.021-.617 6.185 6.185 0 0 0-.064-.56 4.844 4.844 0 0 0-.031-.17 3.034 3.034 0 0 0-.128-.456 2.145 2.145 0 0 0-.223-.445 1.82 1.82 0 0 0-.033-.048 1.614 1.614 0 0 0-.701-.56 2.561 2.561 0 0 0-.885-.18 4.027 4.027 0 0 0-.18-.004 3.58 3.58 0 0 0-.453.027 2.43 2.43 0 0 0-.437.095 1.85 1.85 0 0 0-.187.071c-.288.127-.52.318-.694.573-.175.254-.3.571-.373.952a6.504 6.504 0 0 0-.11 1.114 9.625 9.625 0 0 0-.002.208v1.027c0 .469.04.885.119 1.247.08.363.209.668.387.917a1.709 1.709 0 0 0 .698.568 2.046 2.046 0 0 0 .445.14c.184.037.387.055.607.055a3.465 3.465 0 0 0 .464-.03c.225-.03.425-.084.601-.162.29-.129.523-.317.7-.566a2.11 2.11 0 0 0 .255-.476 2.902 2.902 0 0 0 .13-.449 5.239 5.239 0 0 0 .085-.572c.018-.19.028-.39.03-.602a8.515 8.515 0 0 0 0-.091Z" fill="#fff" fill-rule="evenodd" data-name="Path 19"/><path d="M186.7 152.621v.865c0 .324-.014.64-.044.946a4.638 4.638 0 0 1-.127.714 4.182 4.182 0 0 1-.044.155 3.192 3.192 0 0 1-.338.751 2.141 2.141 0 0 1-.544.59 2.246 2.246 0 0 1-.44.254 2.948 2.948 0 0 1-.357.13 3.889 3.889 0 0 1-1.096.138 4.807 4.807 0 0 1-.517-.026 3.391 3.391 0 0 1-.475-.084 2.74 2.74 0 0 1-.1-.028 2.855 2.855 0 0 1-.445-.171 2.273 2.273 0 0 1-.353-.213 2.13 2.13 0 0 1-.544-.582 3.092 3.092 0 0 1-.335-.733 4.17 4.17 0 0 1-.16-.756 4.538 4.538 0 0 1-.01-.082 8.457 8.457 0 0 1-.047-.895v-.973a9.262 9.262 0 0 1 .047-.941 4.524 4.524 0 0 1 .12-.687 4.144 4.144 0 0 1 .05-.181 3.193 3.193 0 0 1 .325-.731 3.094 3.094 0 0 1 .013-.022c.142-.228.324-.426.544-.592a2.24 2.24 0 0 1 .44-.256 2.829 2.829 0 0 1 .358-.13 3.08 3.08 0 0 1 .473-.1c.192-.025.4-.038.622-.038a4.844 4.844 0 0 1 .516.026c.21.022.401.06.576.112a2.763 2.763 0 0 1 .457.177 2.243 2.243 0 0 1 .341.209c.222.166.403.364.544.592a3.247 3.247 0 0 1 .319.702 3.54 3.54 0 0 1 .016.051 4.41 4.41 0 0 1 .15.697 4.966 4.966 0 0 1 .02.171 9.562 9.562 0 0 1 .046.941Zm-.723.984v-1.006a8.69 8.69 0 0 0-.02-.617 6.14 6.14 0 0 0-.065-.56 4.796 4.796 0 0 0-.031-.17 3.091 3.091 0 0 0-.126-.448 2.196 2.196 0 0 0-.216-.438 1.85 1.85 0 0 0-.042-.063 1.624 1.624 0 0 0-.701-.56 2.571 2.571 0 0 0-.886-.18 4.028 4.028 0 0 0-.18-.004c-.341 0-.637.04-.89.122a1.854 1.854 0 0 0-.186.071 1.61 1.61 0 0 0-.695.573 2.116 2.116 0 0 0-.235.455 3.027 3.027 0 0 0-.138.497c-.064.327-.1.698-.109 1.114a9.752 9.752 0 0 0-.002.208v1.027a7.239 7.239 0 0 0 .022.585c.017.204.043.396.079.575a4.073 4.073 0 0 0 .018.087 2.87 2.87 0 0 0 .144.472 2.138 2.138 0 0 0 .243.445 1.71 1.71 0 0 0 .697.568 2.047 2.047 0 0 0 .446.14c.184.037.386.055.606.055.422 0 .777-.064 1.066-.192.289-.129.522-.317.701-.566a2.136 2.136 0 0 0 .25-.469 2.94 2.94 0 0 0 .134-.456 5.194 5.194 0 0 0 .085-.572c.018-.19.028-.39.03-.602a8.515 8.515 0 0 0 .001-.091Z" fill="#fff" fill-rule="evenodd" data-name="Path 18"/><path d="m260.174 154.782.689-.011a1.936 1.936 0 0 0 .011.203 2.734 2.734 0 0 0 .024.171 1.694 1.694 0 0 0 .046.2 1.935 1.935 0 0 0 .07.201 1.494 1.494 0 0 0 .18.317 1.849 1.849 0 0 0 .054.07 1.366 1.366 0 0 0 .248.239 1.735 1.735 0 0 0 .128.088c.15.094.334.169.55.226.216.058.468.087.758.087a3.79 3.79 0 0 0 .39-.019c.182-.019.345-.052.49-.099a1.928 1.928 0 0 0 .3-.125 1.378 1.378 0 0 0 .29-.199c.15-.137.261-.301.33-.491a1.702 1.702 0 0 0 .098-.437 2.046 2.046 0 0 0 .008-.186 2.212 2.212 0 0 0-.02-.3 1.617 1.617 0 0 0-.069-.301 1.274 1.274 0 0 0-.269-.457 1.565 1.565 0 0 0-.285-.24 1.867 1.867 0 0 0-.162-.097 2.873 2.873 0 0 0-.604-.23 4.079 4.079 0 0 0-.022-.005l-1.332-.365a4.864 4.864 0 0 1-.401-.13 3.417 3.417 0 0 1-.36-.158 1.995 1.995 0 0 1-.349-.225 1.768 1.768 0 0 1-.196-.184 1.602 1.602 0 0 1-.31-.516 1.79 1.79 0 0 1-.021-.062 2.006 2.006 0 0 1-.08-.335 2.991 2.991 0 0 1-.033-.459 2.516 2.516 0 0 1 .065-.58 2.235 2.235 0 0 1 .06-.211 1.545 1.545 0 0 1 .416-.64 1.686 1.686 0 0 1 .35-.249 2.42 2.42 0 0 1 .42-.176c.321-.103.719-.154 1.196-.154.474 0 .876.056 1.207.169a2.446 2.446 0 0 1 .425.19 1.864 1.864 0 0 1 .384.291 1.953 1.953 0 0 1 .468.748c.102.294.166.619.19.978l-.69.005a3.87 3.87 0 0 0-.075-.509 3.401 3.401 0 0 0-.047-.186 1.391 1.391 0 0 0-.311-.566 1.322 1.322 0 0 0-.313-.252 1.79 1.79 0 0 0-.277-.132c-.247-.094-.566-.141-.955-.141-.256 0-.48.018-.67.053a1.882 1.882 0 0 0-.271.07 1.845 1.845 0 0 0-.243.103 1.238 1.238 0 0 0-.223.145.972.972 0 0 0-.082.076 1.055 1.055 0 0 0-.195.277.955.955 0 0 0-.063.174 1.984 1.984 0 0 0-.066.507c0 .205.024.387.074.545a1.265 1.265 0 0 0 .005.016 1.175 1.175 0 0 0 .24.426 1.34 1.34 0 0 0 .275.234 1.69 1.69 0 0 0 .13.077 2.414 2.414 0 0 0 .262.118c.095.036.196.068.304.098l1.463.408a4.114 4.114 0 0 1 .466.16 3.325 3.325 0 0 1 .268.125 2.003 2.003 0 0 1 .426.294 1.788 1.788 0 0 1 .127.128 1.717 1.717 0 0 1 .3.478 2.075 2.075 0 0 1 .05.128 2.114 2.114 0 0 1 .092.384c.018.12.028.249.03.385a3.587 3.587 0 0 1 .001.059c.001.245-.026.47-.081.676a1.78 1.78 0 0 1-.577.919c-.443.375-1.1.562-1.97.562a4.397 4.397 0 0 1-.58-.036 3.128 3.128 0 0 1-.573-.13 2.641 2.641 0 0 1-.037-.012 2.716 2.716 0 0 1-.497-.227 2.154 2.154 0 0 1-.36-.266 2.022 2.022 0 0 1-.517-.752 2.486 2.486 0 0 1-.161-.703 2.985 2.985 0 0 1-.011-.255Z" fill="#fff" fill-rule="evenodd" data-name="Path 17"/><path d="m169.084 154.782.689-.011a2.019 2.019 0 0 0 .01.203 2.854 2.854 0 0 0 .024.171 1.83 1.83 0 0 0 .046.2 1.91 1.91 0 0 0 .072.201 1.525 1.525 0 0 0 .178.317 1.927 1.927 0 0 0 .054.07 1.431 1.431 0 0 0 .264.25 1.79 1.79 0 0 0 .112.077 1.731 1.731 0 0 0 .26.13c.084.034.174.064.271.09a2.853 2.853 0 0 0 .02.006 2.387 2.387 0 0 0 .327.062c.133.017.276.025.43.025a3.8 3.8 0 0 0 .388-.019 2.38 2.38 0 0 0 .493-.099 1.934 1.934 0 0 0 .29-.12c.115-.058.214-.126.3-.204a1.23 1.23 0 0 0 .331-.491 1.702 1.702 0 0 0 .097-.437 2.046 2.046 0 0 0 .008-.186 2.192 2.192 0 0 0-.02-.3 1.626 1.626 0 0 0-.07-.301 1.288 1.288 0 0 0-.268-.457 1.55 1.55 0 0 0-.281-.238 1.862 1.862 0 0 0-.166-.099 2.909 2.909 0 0 0-.615-.232 4.163 4.163 0 0 0-.011-.003l-1.332-.365a4.864 4.864 0 0 1-.4-.13 3.417 3.417 0 0 1-.36-.158 2.01 2.01 0 0 1-.35-.225 1.719 1.719 0 0 1-.196-.184 1.607 1.607 0 0 1-.31-.516 1.826 1.826 0 0 1-.021-.062 2.504 2.504 0 0 1-.113-.794 2.516 2.516 0 0 1 .065-.58 2.235 2.235 0 0 1 .06-.211 1.545 1.545 0 0 1 .416-.64c.181-.17.42-.306.712-.406a2.886 2.886 0 0 1 .058-.019 2.885 2.885 0 0 1 .43-.1c.227-.036.482-.054.766-.054.473 0 .876.056 1.207.169a2.447 2.447 0 0 1 .437.198 1.856 1.856 0 0 1 .372.283 1.953 1.953 0 0 1 .468.748 3.484 3.484 0 0 1 .146.588 4.2 4.2 0 0 1 .044.39l-.689.005a3.87 3.87 0 0 0-.076-.509 3.401 3.401 0 0 0-.047-.186 1.403 1.403 0 0 0-.311-.566 1.32 1.32 0 0 0-.31-.25 1.808 1.808 0 0 0-.28-.134c-.247-.094-.566-.141-.956-.141-.255 0-.478.018-.669.053a1.89 1.89 0 0 0-.271.07 1.85 1.85 0 0 0-.244.103 1.234 1.234 0 0 0-.223.145.96.96 0 0 0-.081.076 1.055 1.055 0 0 0-.195.277.955.955 0 0 0-.063.174 1.984 1.984 0 0 0-.066.507c0 .205.024.387.073.545a1.32 1.32 0 0 0 .005.016 1.2 1.2 0 0 0 .24.426 1.309 1.309 0 0 0 .262.225 1.7 1.7 0 0 0 .144.086 2.459 2.459 0 0 0 .28.124 3.277 3.277 0 0 0 .286.092l1.462.408a4.092 4.092 0 0 1 .456.155 3.273 3.273 0 0 1 .278.13 2.009 2.009 0 0 1 .418.287 1.805 1.805 0 0 1 .136.135 1.713 1.713 0 0 1 .3.478 2.092 2.092 0 0 1 .05.128c.077.221.117.477.121.77a3.666 3.666 0 0 1 0 .058c.002.246-.025.472-.08.678a1.779 1.779 0 0 1-.577.917c-.442.375-1.098.562-1.97.562a4.391 4.391 0 0 1-.58-.036 3.123 3.123 0 0 1-.57-.129 2.63 2.63 0 0 1-.04-.013 2.705 2.705 0 0 1-.49-.223 2.16 2.16 0 0 1-.366-.27 2.011 2.011 0 0 1-.517-.752 2.582 2.582 0 0 1-.172-.958Z" fill="#fff" fill-rule="evenodd" data-name="Path 16"/><g data-name="Group 10"><path d="M149.157 148.943h2.786c.54 0 .995.09 1.362.27a2.471 2.471 0 0 1 .651.455 2.267 2.267 0 0 1 .239.275 2.835 2.835 0 0 1 .421.844 3.324 3.324 0 0 1 .06.222 5.442 5.442 0 0 1 .142 1.105 6.059 6.059 0 0 1 .002.165v1.542c0 .278-.018.552-.054.825a3.802 3.802 0 0 1-.187.779 3.167 3.167 0 0 1-.346.689 2.157 2.157 0 0 1-.533.551 2.346 2.346 0 0 1-.468.262 2.868 2.868 0 0 1-.284.103 2.866 2.866 0 0 1-.48.102c-.162.02-.334.031-.515.031h-2.796v-8.22Zm.725 7.603h2.039a2.673 2.673 0 0 0 .662-.08 2.44 2.44 0 0 0 .19-.057 1.694 1.694 0 0 0 .689-.45c.195-.206.349-.48.463-.819.09-.269.144-.59.163-.96a5.935 5.935 0 0 0 .007-.294v-1.617a5.3 5.3 0 0 0-.03-.58 3.826 3.826 0 0 0-.099-.546 3.217 3.217 0 0 0-.009-.034 2.787 2.787 0 0 0-.168-.46 2.08 2.08 0 0 0-.24-.392 1.728 1.728 0 0 0-.68-.525 2.077 2.077 0 0 0-.522-.148 2.801 2.801 0 0 0-.421-.03h-2.044v6.992Z" fill="#fff" fill-rule="evenodd" data-name="Path 15"/><path d="M136.792 149.878h-.092l.022.357.005 6.928h-.708v-8.22h.957l4.008 7.252h.092l-.017-.276-.01-6.976h.724v8.22h-.962l-4.019-7.285Z" fill="#fff" fill-rule="evenodd" data-name="Path 14"/><path d="m123.064 157.163 2.8-8.22h1.099l2.807 8.22h-.741l-.838-2.504h-3.56l-.831 2.504h-.736Zm1.774-3.12h3.147l-1.508-4.505h-.13l-1.51 4.505Z" fill="#fff" fill-rule="evenodd" data-name="Path 13"/><path d="m116.842 154.946.292 1.26c.036.168.089.337.16.507a3.017 3.017 0 0 0 .002.004 3.148 3.148 0 0 0 .112.24 2.373 2.373 0 0 0 .12.206h-.756a1.366 1.366 0 0 1-.095-.158 1.94 1.94 0 0 1-.083-.182 2.429 2.429 0 0 1-.025-.068 4.187 4.187 0 0 1-.15-.511l-.307-1.271a1.587 1.587 0 0 0-.13-.354 1.428 1.428 0 0 0-.097-.163 1.696 1.696 0 0 0-.352-.37 1.655 1.655 0 0 0-.013-.009 1.74 1.74 0 0 0-.455-.24 1.86 1.86 0 0 0-.411-.096 1.739 1.739 0 0 0-.078-.007h-1.931v3.429h-.724v-8.22h2.877c.81 0 1.425.168 1.84.505a1.571 1.571 0 0 1 .506.758c.08.246.12.53.12.851v.454a2.56 2.56 0 0 1-.065.59 1.814 1.814 0 0 1-.341.719 1.89 1.89 0 0 1-.66.525 2.681 2.681 0 0 1-.52.189 2.663 2.663 0 0 1 .255.115 2.117 2.117 0 0 1 .185.107c.125.083.235.18.329.292a1.482 1.482 0 0 1 .198.306 1.848 1.848 0 0 1 .037.08 2.53 2.53 0 0 1 .087.238c.025.08.048.165.069.256a3.629 3.629 0 0 1 .004.018Zm-2.055-5.392h-2.142v3.564h2.002a4.075 4.075 0 0 0 .376-.016c.123-.012.236-.029.341-.052a2.04 2.04 0 0 0 .18-.048c.242-.078.436-.188.584-.331.148-.142.254-.313.317-.513a2.088 2.088 0 0 0 .078-.383 2.603 2.603 0 0 0 .016-.291v-.394c0-.227-.027-.435-.081-.622a1.117 1.117 0 0 0-.281-.484 1.148 1.148 0 0 0-.26-.196 1.627 1.627 0 0 0-.26-.114 1.987 1.987 0 0 0-.018-.007 1.971 1.971 0 0 0-.298-.072 3.011 3.011 0 0 0-.331-.035 4.12 4.12 0 0 0-.223-.006Z" fill="#fff" fill-rule="evenodd" data-name="Path 12"/><path d="M102.514 157.163H99.69v-8.22h2.785a4.092 4.092 0 0 1 .661.051 3.515 3.515 0 0 1 .209.041 2.286 2.286 0 0 1 .473.159 1.933 1.933 0 0 1 .252.141 1.529 1.529 0 0 1 .498.543c.122.224.183.496.183.817v.53a2.039 2.039 0 0 1-.081.579 1.617 1.617 0 0 1-.246.5c-.11.149-.25.274-.416.373a1.363 1.363 0 0 1-.376.15 1.724 1.724 0 0 1-.211.036 2.13 2.13 0 0 1 .399.072 1.755 1.755 0 0 1 .277.104 1.7 1.7 0 0 1 .41.275 1.54 1.54 0 0 1 .096.096c.138.151.244.325.316.522a1.794 1.794 0 0 1 .105.52 2.072 2.072 0 0 1 .003.115v.422a4.186 4.186 0 0 1-.022.439c-.016.149-.04.287-.073.415a2.264 2.264 0 0 1-.037.13c-.09.274-.232.5-.43.676a1.604 1.604 0 0 1-.392.254 2.24 2.24 0 0 1-.38.135 2.783 2.783 0 0 1-.004.001c-.32.083-.711.124-1.176.124Zm-.011-3.975h-2.1v3.358h2.089a6.157 6.157 0 0 0 .383-.011 4.552 4.552 0 0 0 .349-.035 1.52 1.52 0 0 0 .31-.074 1.238 1.238 0 0 0 .264-.131.964.964 0 0 0 .282-.295 1.28 1.28 0 0 0 .09-.175 1.441 1.441 0 0 0 .08-.258c.02-.088.033-.184.042-.288a3.484 3.484 0 0 0 .012-.296v-.475a1.484 1.484 0 0 0-.028-.291 1.113 1.113 0 0 0-.1-.293 1.113 1.113 0 0 0-.36-.412 1.46 1.46 0 0 0-.289-.155 2.003 2.003 0 0 0-.278-.088 2.848 2.848 0 0 0-.401-.065 3.691 3.691 0 0 0-.345-.016Zm-.114-3.677h-1.985v3.082h2.06a2.916 2.916 0 0 0 .423-.028c.33-.049.586-.16.768-.331a1.186 1.186 0 0 0 .343-.633 1.757 1.757 0 0 0 .035-.36v-.476a1.546 1.546 0 0 0-.034-.328 1.34 1.34 0 0 0-.052-.18.953.953 0 0 0-.282-.398 1.13 1.13 0 0 0-.224-.147 1.712 1.712 0 0 0-.284-.11 2.044 2.044 0 0 0-.278-.06 3.057 3.057 0 0 0-.295-.027 4.122 4.122 0 0 0-.195-.004Z" fill="#fff" fill-rule="evenodd" data-name="Path 11"/></g></g><path d="M369.22 136.53h-3.162l2.484 2.483H99.69v2.482h268.852l-2.484 2.482h3.161l3.723-3.723-3.723-3.724Z" fill="#fff" fill-rule="evenodd" data-name="Path 10"/><g data-name="Group 9"><g data-name="Group 8"><path d="m174.164 107.282 10.857-6.268-10.857-6.269v12.537Z" fill="#fff" fill-rule="evenodd" data-name="Path 9"/><path d="M369.273 117.915v-3.569a33.02 33.02 0 0 0-.372-2.906 18.005 18.005 0 0 0-.184-.898 9.992 9.992 0 0 0-.367-1.232c-.157-.42-.337-.8-.54-1.144a5.89 5.89 0 0 0-.103-.166 6.144 6.144 0 0 0-1.7-1.751c-.696-.482-1.56-.959-2.592-1.431a17.707 17.707 0 0 0 3.047-1.694 13.428 13.428 0 0 0 2.66-2.43 9.102 9.102 0 0 0 2.014-4.783 12.06 12.06 0 0 0 .09-1.496v-3.232a24.717 24.717 0 0 0-.207-3.288c-.19-1.407-.508-2.685-.955-3.833a11.643 11.643 0 0 0-3.586-4.933 13.683 13.683 0 0 0-3.088-1.85 18.916 18.916 0 0 0-3.056-1.028 28.91 28.91 0 0 0-3.523-.633 42.088 42.088 0 0 0-3.903-.275 53.333 53.333 0 0 0-1.412-.018h-23.803v51.276h16.8v-16.295h2.323a12.598 12.598 0 0 1 1.852.135 4.164 4.164 0 0 1 1.667.623 3.582 3.582 0 0 1 .873.805 4.734 4.734 0 0 1 .406.609c.251.445.446 1.01.586 1.696a11.185 11.185 0 0 1 .138.846l.303 3.972a15.29 15.29 0 0 0 .39 1.74 18.344 18.344 0 0 0 .266.853 33.251 33.251 0 0 0 .522 1.44 26.04 26.04 0 0 0 .42 1.018 30.982 30.982 0 0 0 .355.778c.095.202.188.39.277.566a14.943 14.943 0 0 0 .26.491 20.288 20.288 0 0 0 .097.17c.206.36.33.544.373.553a.015.015 0 0 0 .003 0h17.339a12.594 12.594 0 0 1-.271-.376c-.198-.284-.42-.624-.669-1.02a39.848 39.848 0 0 1-.053-.085 21.253 21.253 0 0 1-1.145-2.104 19.39 19.39 0 0 1-.87-2.149 21.663 21.663 0 0 1-.107-.326 13.41 13.41 0 0 1-.349-1.313 12.555 12.555 0 0 1-.206-1.313Zm-18.585-20.066h-6.161V87.715h6.195a5.49 5.49 0 0 1 .746.048c.258.035.494.09.709.165a2.7 2.7 0 0 1 .363.157c.47.247.842.589 1.11 1.027.27.438.46.948.573 1.532a9.489 9.489 0 0 1 .16 1.43 11.02 11.02 0 0 1 .008.422v1.043a4.578 4.578 0 0 1-.219 1.425 4.27 4.27 0 0 1-.1.276 5.066 5.066 0 0 1-.472.903 4.221 4.221 0 0 1-.353.46 3.865 3.865 0 0 1-1.178.909 3.142 3.142 0 0 1-.986.31 2.93 2.93 0 0 1-.395.027Z" fill="#fff" fill-rule="evenodd" data-name="Path 8"/><path d="M279.354 96.872v8.182a26.83 26.83 0 0 0 .556 5.471c.37 1.784.948 3.479 1.734 5.084a18.567 18.567 0 0 0 3.013 4.41 17.866 17.866 0 0 0 3.676 3.046 20.464 20.464 0 0 0 .7.422 20.72 20.72 0 0 0 3.433 1.564 26.093 26.093 0 0 0 2.426.725c2.211.55 4.685.825 7.424.825 3.479 0 6.525-.431 9.142-1.294a19.906 19.906 0 0 0 1.33-.49 22.116 22.116 0 0 0 4.112-2.196 17.725 17.725 0 0 0 2.99-2.568 18.497 18.497 0 0 0 4.04-6.868 25.85 25.85 0 0 0 1.28-8.131v-8.215a25.483 25.483 0 0 0-1.28-8.047 18.673 18.673 0 0 0-4.04-6.868 18.427 18.427 0 0 0-4.424-3.487 23.398 23.398 0 0 0-2.679-1.311 22.137 22.137 0 0 0-4.472-1.292 31.719 31.719 0 0 0-4.626-.485 40.01 40.01 0 0 0-1.407-.024 35.285 35.285 0 0 0-4.709.297 24.733 24.733 0 0 0-4.478 1.01 19.867 19.867 0 0 0-1.334.494 22.212 22.212 0 0 0-4.071 2.175 17.757 17.757 0 0 0-3.05 2.623 18.467 18.467 0 0 0-4.023 6.885 25.945 25.945 0 0 0-1.263 8.063Zm16.902 9.226v-9.865a18.988 18.988 0 0 1 .235-2.946 8.873 8.873 0 0 1 .557-2.015 7.92 7.92 0 0 1 .336-.712 5.374 5.374 0 0 1 1.85-2.004 4.524 4.524 0 0 1 1.369-.58 6.593 6.593 0 0 1 1.252-.182 8.578 8.578 0 0 1 .46-.012c.92 0 1.757.202 2.509.606a5.65 5.65 0 0 1 1.906 1.683 6.443 6.443 0 0 1 .013.017 7.215 7.215 0 0 1 .791 1.423 9.511 9.511 0 0 1 .421 1.237c.28 1.044.421 2.205.421 3.485v9.831a13.052 13.052 0 0 1-.183 2.22 11.376 11.376 0 0 1-.204.945c-.258.988-.64 1.846-1.145 2.575a5.613 5.613 0 0 1-1.902 1.734 5.035 5.035 0 0 1-1.907.6 6.325 6.325 0 0 1-.72.04c-1.01 0-1.89-.213-2.642-.64a5.665 5.665 0 0 1-1.885-1.734 7.572 7.572 0 0 1-.863-1.669 9.332 9.332 0 0 1-.282-.89 11.747 11.747 0 0 1-.36-2.268 13.918 13.918 0 0 1-.027-.879Z" fill="#fff" fill-rule="evenodd" data-name="Path 7"/><path d="M236.196 87.782h12.525v38.82h16.834v-38.82h12.558V75.325h-41.917v12.457Z" fill="#fff" fill-rule="evenodd" data-name="Path 6"/><path d="M218.963 93.91h15.992a16.81 16.81 0 0 0-1.358-6.56 19.29 19.29 0 0 0-.09-.208 19.045 19.045 0 0 0-4.09-5.959 19.83 19.83 0 0 0-5-3.587 23.403 23.403 0 0 0-1.397-.655c-2.503-1.077-5.292-1.616-8.367-1.616a35.305 35.305 0 0 0-3.905.206 26.527 26.527 0 0 0-3.5.619 25.281 25.281 0 0 0-3.48 1.13 20.394 20.394 0 0 0-2.38 1.159 18.366 18.366 0 0 0-3.494 2.569 16.575 16.575 0 0 0-.9.916 19.113 19.113 0 0 0-3.013 4.41 21.077 21.077 0 0 0-1.734 5.084 27.117 27.117 0 0 0-.555 5.488v8.08c0 1.864.185 3.687.555 5.472a21.902 21.902 0 0 0 1.717 5.083 18.542 18.542 0 0 0 2.997 4.428 17.703 17.703 0 0 0 3.752 3.11 20.205 20.205 0 0 0 .625.374 21.16 21.16 0 0 0 3.467 1.586 26.65 26.65 0 0 0 2.374.721 26.41 26.41 0 0 0 3.85.668 35.135 35.135 0 0 0 3.557.173 24.643 24.643 0 0 0 5.616-.622 21.69 21.69 0 0 0 2.448-.724 20.031 20.031 0 0 0 5.124-2.714 18.423 18.423 0 0 0 1.34-1.091 17.526 17.526 0 0 0 4.293-5.858c1.032-2.267 1.548-4.747 1.548-7.441h-15.992a8.468 8.468 0 0 1-.101 1.339 6.468 6.468 0 0 1-.303 1.186 7.103 7.103 0 0 1-.492 1.079 5.59 5.59 0 0 1-.552.807 4.945 4.945 0 0 1-.888.847 4.304 4.304 0 0 1-.56.348c-.538.281-1.055.421-1.548.421a6.038 6.038 0 0 1-1.322-.138 4.605 4.605 0 0 1-1.304-.502 5.4 5.4 0 0 1-1.835-1.734 7.644 7.644 0 0 1-.798-1.594 9.568 9.568 0 0 1-.296-.965 12.243 12.243 0 0 1-.356-2.451 14.24 14.24 0 0 1-.015-.663V96.064a18.97 18.97 0 0 1 .167-2.474 21.295 21.295 0 0 1 .052-.371 8.563 8.563 0 0 1 .565-2.054 7.708 7.708 0 0 1 .294-.622 5.372 5.372 0 0 1 1.8-1.987c.663-.441 1.501-.694 2.516-.758a8.456 8.456 0 0 1 .532-.016 1.675 1.675 0 0 1 .322.035c.221.043.476.128.763.254a6.539 6.539 0 0 1 .144.065 4.276 4.276 0 0 1 .813.502 5.884 5.884 0 0 1 .65.592 5.724 5.724 0 0 1 .695.898c.186.294.36.617.52.97a9.545 9.545 0 0 1 .015.034 5.662 5.662 0 0 1 .4 1.319c.081.45.122.937.122 1.459Z" fill="#fff" fill-rule="evenodd" data-name="Path 5"/><path d="m124.504 112.393-7.575-37.068H99.69l12.222 51.276h25.116l12.323-51.276h-17.205l-7.642 37.068Z" fill="#fff" fill-rule="evenodd" data-name="Path 4"/></g><path d="M168.735 114.245h21.716v12.356h-38.617V75.325h38.617v12.457h-21.716v26.463Z" fill="#ffdf24" fill-rule="evenodd" data-name="Path 3"/></g></g></svg>